<svg xmlns="http://www.w3.org/2000/svg" width="56" height="56" viewBox="0 0 56 56"><defs><style>.a{fill:#d80027;}.b{fill:#ffda44;}</style></defs><g transform="translate(48.4 -141.6)"><circle class="a" cx="28" cy="28" r="28" transform="translate(-48.4 141.599)"/><g transform="translate(-43.683 153.919)"><path class="b" d="M7.9,296.8l2.456,7.557H18.3l-6.424,4.679,2.456,7.557L7.9,311.925l-6.435,4.668,2.467-7.557L-2.5,304.357H5.446Z" transform="translate(2.5 -292.255)"/><path class="b" d="M215.123,475.19l-1.878-2.312-2.778,1.078,1.611-2.5-1.878-2.323,2.878.767,1.623-2.5.156,2.978,2.889.767-2.789,1.067Z" transform="translate(-186.562 -443.895)"/><path class="b" d="M275.745,416.857l.889-2.845-2.434-1.723,2.978-.044.878-2.845.967,2.823,2.978-.033-2.389,1.778.956,2.823-2.434-1.723Z" transform="translate(-243.449 -392.341)"/><path class="b" d="M278.2,323.389l-1.311,2.678,2.134,2.078-2.945-.422-1.311,2.667-.511-2.934-2.956-.422,2.645-1.389-.511-2.945,2.134,2.078Z" transform="translate(-240.871 -315.276)"/><path class="b" d="M214.934,255.9l-.222,2.967,2.767,1.122-2.9.711-.211,2.978-1.567-2.534-2.9.711,1.923-2.278-1.578-2.523,2.767,1.122Z" transform="translate(-186.295 -255.9)"/></g></g></svg>