<svg xmlns="http://www.w3.org/2000/svg" width="56.399" height="56.399" viewBox="0 0 56.399 56.399"><defs><style>.a{fill:#f0f0f0;}.b{fill:#0052b4;}.c{fill:#d80027;}</style></defs><circle class="a" cx="28" cy="28" r="28" transform="translate(0.2 0.2)"/><g transform="translate(0.971 0.971)"><path class="b" d="M13.677,100.142a28.1,28.1,0,0,0-4.858,9.812h14.67Z" transform="translate(-8.819 -90.082)"/><path class="b" d="M384.675,109.955a28.1,28.1,0,0,0-4.858-9.812l-9.812,9.812Z" transform="translate(-330.219 -90.083)"/><path class="b" d="M8.819,322.784a28.1,28.1,0,0,0,4.858,9.812l9.812-9.812Z" transform="translate(-8.819 -288.199)"/><path class="b" d="M332.594,13.677a28.1,28.1,0,0,0-9.812-4.858v14.67Z" transform="translate(-288.197 -8.819)"/><path class="b" d="M100.142,379.817a28.1,28.1,0,0,0,9.812,4.858v-14.67Z" transform="translate(-90.082 -349.976)"/><path class="b" d="M109.954,8.819a28.1,28.1,0,0,0-9.812,4.858l9.812,9.812Z" transform="translate(-90.082 -8.819)"/><path class="b" d="M322.783,384.675a28.1,28.1,0,0,0,9.812-4.858l-9.812-9.812Z" transform="translate(-288.198 -330.219)"/><path class="b" d="M370.005,322.784l9.812,9.812a28.1,28.1,0,0,0,4.858-9.812Z" transform="translate(-330.219 -288.199)"/></g><path class="c" d="M56.161,24.522H31.878V.239a28.459,28.459,0,0,0-7.356,0V24.521H.239a28.459,28.459,0,0,0,0,7.356H24.521V56.161a28.459,28.459,0,0,0,7.356,0V31.878H56.161a28.459,28.459,0,0,0,0-7.356Z"/><path class="c" d="M322.783,322.783h0l12.584,12.584q.868-.868,1.658-1.81l-10.773-10.773h-3.468Z" transform="translate(-287.227 -287.227)"/><path class="c" d="M87.564,322.784h0L74.98,335.368q.868.868,1.81,1.658l10.773-10.774v-3.468Z" transform="translate(-66.721 -287.228)"/><path class="c" d="M74.174,87.564h0L61.591,74.98q-.868.868-1.658,1.81L70.707,87.564h3.468Z" transform="translate(-53.331 -66.721)"/><path class="c" d="M322.783,74.175h0l12.584-12.584q-.868-.868-1.81-1.658L322.783,70.708Z" transform="translate(-287.227 -53.332)"/></svg>