<svg xmlns="http://www.w3.org/2000/svg" width="56" height="56.799" viewBox="0 0 56 56.799"><defs><style>.a{fill:#f0f0f0;}.b{fill:#ff9811;}.c{fill:#6da544;}.d{fill:#0052b4;}</style></defs><g transform="translate(-0.399)"><circle class="a" cx="28" cy="28" r="28" transform="translate(0.399 0.4)"/><path class="b" d="M50.984,0A28.4,28.4,0,0,0,25.4,16.052H76.566A28.4,28.4,0,0,0,50.984,0Z" transform="translate(-22.585)"/><path class="c" d="M50.984,383.356A28.4,28.4,0,0,0,76.566,367.3H25.4A28.4,28.4,0,0,0,50.984,383.356Z" transform="translate(-22.585 -326.556)"/><circle class="d" cx="9.878" cy="9.878" r="9.878" transform="translate(18.52 18.522)"/><circle class="a" cx="6.174" cy="6.174" r="6.174" transform="translate(22.225 22)"/><path class="d" d="M203.125,187.326l1.9,4.32,4.693-.51-2.789,3.809,2.789,3.809-4.693-.51-1.9,4.32-1.9-4.32-4.693.51,2.789-3.809-2.789-3.809,4.693.51Z" transform="translate(-174.726 -166.545)"/></g></svg>