<svg xmlns="http://www.w3.org/2000/svg" width="56.8" height="56.8" viewBox="0 0 56.8 56.8"><defs><style>.a{fill:#f0f0f0;}.b{fill:#d80027;}.c{fill:#0052b4;}</style></defs><circle class="a" cx="28" cy="28" r="28" transform="translate(0.4 0.4)"/><g transform="translate(0.978 6.174)"><path class="b" d="M244.87,196.626H274.5a28.431,28.431,0,0,0-.978-7.409H244.87Z" transform="translate(-218.683 -174.4)"/><path class="b" d="M244.87,63.061h25.466a28.549,28.549,0,0,0-6.553-7.409H244.87Z" transform="translate(-218.683 -55.652)"/><path class="b" d="M114.322,462.522A28.278,28.278,0,0,0,132,456.348H96.644A28.278,28.278,0,0,0,114.322,462.522Z" transform="translate(-86.901 -411.896)"/><path class="b" d="M12.009,330.191H60.472a28.23,28.23,0,0,0,3.19-7.409H8.819A28.23,28.23,0,0,0,12.009,330.191Z" transform="translate(-8.819 -304.956)"/></g><path class="c" d="M13.155,4.435h2.588L13.336,6.184l.92,2.83L11.848,7.265,9.441,9.014l.794-2.445a28.556,28.556,0,0,0-5.508,6.139h.829L4.024,13.821q-.358.6-.687,1.213l.732,2.252L2.7,16.3q-.509,1.078-.929,2.2l.806,2.481H5.557L3.149,22.73l.92,2.83L1.662,23.811.22,24.859A28.674,28.674,0,0,0,0,28.4H28.4V0A28.265,28.265,0,0,0,13.155,4.435Zm1.1,21.125-2.407-1.749L9.441,25.56l.92-2.83L7.953,20.981h2.976l.919-2.83.919,2.83h2.976L13.336,22.73Zm-.92-11.1.92,2.83-2.407-1.749L9.441,17.287l.92-2.83L7.953,12.708h2.976l.919-2.83.919,2.83h2.976Zm11.106,11.1-2.407-1.749L19.628,25.56l.92-2.83L18.14,20.981h2.976l.919-2.83.919,2.83H25.93L23.523,22.73Zm-.92-11.1.92,2.83-2.407-1.749-2.407,1.749.92-2.83L18.14,12.708h2.976l.919-2.83.919,2.83H25.93Zm0-8.273.92,2.83L22.035,7.265,19.628,9.014l.92-2.83L18.14,4.435h2.976l.919-2.83.919,2.83H25.93Z"/></svg>