<svg xmlns="http://www.w3.org/2000/svg" width="42" height="36.474" viewBox="0 0 42 36.474"><defs><style>.a{fill:#93c144;}.b{fill:#fff;}</style></defs><g transform="translate(-381 -951)"><rect class="a" width="42" height="36.474" rx="4" transform="translate(381 951)"/><path class="b" d="M407.123,963.354a.5.5,0,0,0,0-.708l-3.182-3.182a.5.5,0,0,0-.707.708L406.062,963l-2.828,2.828a.5.5,0,0,0,.707.708ZM395,963.5h11.769v-1H395Z" transform="translate(2.176 1.127)"/><path class="b" d="M394.647,971.646a.5.5,0,0,0,0,.708l3.182,3.182a.5.5,0,1,0,.707-.708L395.707,972l2.829-2.828a.5.5,0,1,0-.707-.708Zm12.123-.146H395v1h11.77Z" transform="translate(2.099 2.347)"/></g></svg>