<svg xmlns="http://www.w3.org/2000/svg" width="59.754" height="59.754" viewBox="0 0 59.754 59.754"><defs><style>.a{fill:#e1e4fb;}.b{fill:#c5c9f7;}.c{fill:#93c144;}.d{fill:#2e3d62;}.e{fill:#adacb2;}.f{fill:#8a8891;}.g{fill:#f2df33;}.h{fill:#7a7780;}.i{fill:#57555c;}</style></defs><path class="a" d="M52.752,123.735v29.76a5.245,5.245,0,0,1-5.252,5.252H5.252A5.245,5.245,0,0,1,0,153.495v-29.76L3.5,120H49.25Z" transform="translate(0 -105.995)"/><path class="b" d="M252.376,123.735v29.76a5.245,5.245,0,0,1-5.252,5.252H226V120h22.875Z" transform="translate(-199.624 -105.995)"/><path class="c" d="M52.752,35.252v8.986H0V35.252A5.245,5.245,0,0,1,5.252,30H47.5A5.245,5.245,0,0,1,52.752,35.252Z" transform="translate(0 -26.499)"/><path class="c" d="M252.376,35.252v8.986H226V30h21.124A5.245,5.245,0,0,1,252.376,35.252Z" transform="translate(-199.624 -26.499)"/><g transform="translate(7.002)"><path class="d" d="M61.751,10.5A1.75,1.75,0,0,1,60,8.753v-7a1.751,1.751,0,0,1,3.5,0v7A1.75,1.75,0,0,1,61.751,10.5Z" transform="translate(-60)"/><path class="d" d="M151.751,10.5A1.75,1.75,0,0,1,150,8.753v-7a1.751,1.751,0,0,1,3.5,0v7A1.75,1.75,0,0,1,151.751,10.5Z" transform="translate(-139.496)"/></g><g transform="translate(31.744)"><path class="d" d="M273.751,10.5A1.75,1.75,0,0,1,272,8.753v-7a1.751,1.751,0,0,1,3.5,0v7A1.75,1.75,0,0,1,273.751,10.5Z" transform="translate(-272)"/><path class="d" d="M363.751,10.5A1.75,1.75,0,0,1,362,8.753v-7a1.751,1.751,0,1,1,3.5,0v7A1.75,1.75,0,0,1,363.751,10.5Z" transform="translate(-351.496)"/></g><g transform="translate(7.002 21.241)"><path class="e" d="M65.252,185.5h-3.5a1.751,1.751,0,0,1,0-3.5h3.5a1.751,1.751,0,0,1,0,3.5Z" transform="translate(-60 -182)"/><path class="e" d="M155.369,185.5h-3.618a1.751,1.751,0,0,1,0-3.5h3.618a1.751,1.751,0,1,1,0,3.5Z" transform="translate(-139.496 -182)"/></g><g transform="translate(28.126 21.241)"><path class="f" d="M246.369,185.5h-3.618a1.751,1.751,0,0,1,0-3.5h3.618a1.751,1.751,0,0,1,0,3.5Z" transform="translate(-241 -182)"/><path class="f" d="M337.252,185.5h-3.5a1.751,1.751,0,0,1,0-3.5h3.5a1.751,1.751,0,0,1,0,3.5Z" transform="translate(-321.38 -182)"/></g><g transform="translate(7.002 28.243)"><path class="e" d="M65.252,245.5h-3.5a1.751,1.751,0,0,1,0-3.5h3.5a1.751,1.751,0,0,1,0,3.5Z" transform="translate(-60 -242)"/><path class="e" d="M155.369,245.5h-3.618a1.751,1.751,0,0,1,0-3.5h3.618a1.751,1.751,0,1,1,0,3.5Z" transform="translate(-139.496 -242)"/></g><g transform="translate(28.126 28.243)"><path class="f" d="M246.369,245.5h-3.618a1.751,1.751,0,0,1,0-3.5h3.618a1.751,1.751,0,0,1,0,3.5Z" transform="translate(-241 -242)"/><path class="f" d="M337.252,245.5h-3.5a1.751,1.751,0,0,1,0-3.5h3.5a1.751,1.751,0,0,1,0,3.5Z" transform="translate(-321.38 -242)"/></g><g transform="translate(7.002 35.246)"><path class="e" d="M65.252,305.5h-3.5a1.751,1.751,0,0,1,0-3.5h3.5a1.751,1.751,0,0,1,0,3.5Z" transform="translate(-60 -302)"/><path class="e" d="M155.369,305.5h-3.618a1.751,1.751,0,0,1,0-3.5h3.618a1.751,1.751,0,1,1,0,3.5Z" transform="translate(-139.496 -302)"/></g><path class="f" d="M246.369,305.5h-3.618a1.751,1.751,0,0,1,0-3.5h3.618a1.751,1.751,0,0,1,0,3.5Z" transform="translate(-212.874 -266.754)"/><g transform="translate(7.002 42.248)"><path class="e" d="M65.252,365.5h-3.5a1.751,1.751,0,1,1,0-3.5h3.5a1.751,1.751,0,1,1,0,3.5Z" transform="translate(-60 -362)"/><path class="e" d="M155.369,365.5h-3.618a1.751,1.751,0,1,1,0-3.5h3.618a1.751,1.751,0,1,1,0,3.5Z" transform="translate(-139.496 -362)"/></g><path class="f" d="M246.369,365.5h-3.618a1.751,1.751,0,1,1,0-3.5h3.618a1.751,1.751,0,1,1,0,3.5Z" transform="translate(-212.874 -319.752)"/><path class="g" d="M314.254,302a12.254,12.254,0,1,0,12.254,12.254A12.268,12.268,0,0,0,314.254,302Z" transform="translate(-266.754 -266.754)"/><path class="h" d="M399,340.753a1.734,1.734,0,0,1-1.751,1.751h-3.5A1.734,1.734,0,0,1,392,340.753v-7a1.751,1.751,0,1,1,3.5,0V339h1.751A1.733,1.733,0,0,1,399,340.753Z" transform="translate(-347.251 -290.253)"/><path class="i" d="M412.252,340.753A1.734,1.734,0,0,1,410.5,342.5H407V332a1.734,1.734,0,0,1,1.751,1.751V339H410.5A1.734,1.734,0,0,1,412.252,340.753Z" transform="translate(-360.5 -290.253)"/></svg>