<svg xmlns="http://www.w3.org/2000/svg" width="97.466" height="97.466" viewBox="0 0 97.466 97.466"><defs><style>.a{fill:#fff;fill-rule:evenodd;}.b{fill:#3584d5;}.c{fill:none;}</style></defs><path class="a" d="M128.733,64A48.733,48.733,0,1,1,80,112.733,48.733,48.733,0,0,1,128.733,64Z" transform="translate(-80 -64)"/><g transform="translate(17.9 18.129)"><g transform="translate(36.322 33.661)"><g transform="translate(0 0)"><path class="b" d="M305.04,264.939a2.33,2.33,0,1,1,2.664-2.306,1.211,1.211,0,0,0,2.422,0,4.818,4.818,0,0,0-3.875-4.591v-.63a1.211,1.211,0,0,0-2.422,0v.63a4.818,4.818,0,0,0-3.875,4.591,4.922,4.922,0,0,0,5.086,4.728,2.33,2.33,0,1,1-2.664,2.306,1.211,1.211,0,0,0-2.422,0,4.818,4.818,0,0,0,3.875,4.591v.523a1.211,1.211,0,0,0,2.422,0v-.523a4.818,4.818,0,0,0,3.875-4.591A4.922,4.922,0,0,0,305.04,264.939Z" transform="translate(-299.954 -256.201)"/></g></g><g transform="translate(46.491 29.372)"><path class="b" d="M392.105,226.608a15.778,15.778,0,0,0-6.445-5.7,1.211,1.211,0,1,0-1.049,2.183,13.332,13.332,0,0,1,6,18.26,1.211,1.211,0,1,0,2.138,1.138,15.76,15.76,0,0,0-.648-15.877Z" transform="translate(-383.924 -220.785)"/></g><g transform="translate(42.019 27.945)"><path class="b" d="M348.292,209h-.082a1.211,1.211,0,0,0,0,2.422h.076a1.211,1.211,0,0,0,.006-2.422Z" transform="translate(-347 -209.001)"/></g><g transform="translate(25.672 35.66)"><path class="b" d="M221.981,292.751a13.332,13.332,0,0,1-6-18.26,1.211,1.211,0,0,0-2.138-1.138,15.749,15.749,0,0,0,7.093,21.58,1.211,1.211,0,1,0,1.049-2.183Z" transform="translate(-212.002 -272.711)"/></g><g transform="translate(38.311 57.008)"><path class="c" d="M317.664,449h-.07a1.211,1.211,0,0,0-.011,2.422h.081a1.211,1.211,0,1,0,0-2.422Z" transform="translate(-316.378 -448.999)"/></g><g transform="translate(0 3)"><g transform="translate(0 0)"><path class="b" d="M46.913,23.848a5.559,5.559,0,0,0-.538-.989h3.153a5.57,5.57,0,0,0,0-11.141h-9.7A5.567,5.567,0,0,0,35.238,3H5.57a5.57,5.57,0,0,0,0,11.141h9.7a5.555,5.555,0,0,0,0,6.3H12.109a5.567,5.567,0,0,0-3.461,9.93,5.56,5.56,0,0,0,0,8.719,5.56,5.56,0,0,0,0,8.719,5.567,5.567,0,0,0,3.461,9.93H26.38A20.581,20.581,0,1,0,46.913,23.848Zm2.615-9.708a3.148,3.148,0,1,1,0,6.3H19.859a3.148,3.148,0,1,1,0-6.3ZM5.57,11.719a3.148,3.148,0,0,1,0-6.3H35.238a3.148,3.148,0,1,1,0,6.3Zm6.539,11.141H41.777a3.147,3.147,0,0,1,1.374.316c-.573-.048-1.152-.074-1.737-.074a20.522,20.522,0,0,0-14.567,6.055H12.109a3.148,3.148,0,1,1,0-6.3Zm0,8.719H24.778a20.527,20.527,0,0,0-3.112,6.3H12.109a3.148,3.148,0,1,1,0-6.3Zm0,8.719h9a20.6,20.6,0,0,0-.075,6.3H12.109a3.148,3.148,0,1,1,0-6.3Zm0,15.016a3.148,3.148,0,1,1,0-6.3h9.419a20.5,20.5,0,0,0,2.905,6.3Zm29.3,6.539A18.164,18.164,0,1,1,59.578,43.688,18.185,18.185,0,0,1,41.414,61.852Z" transform="translate(0 -3)"/></g></g></g></svg>