<svg xmlns="http://www.w3.org/2000/svg" width="97.466" height="97.466" viewBox="0 0 97.466 97.466"><defs><style>.a{fill:#fff;fill-rule:evenodd;}.b{fill:#3584d5;}</style></defs><g transform="translate(0 -0.129)"><path class="a" d="M128.733,64A48.733,48.733,0,1,1,80,112.733,48.733,48.733,0,0,1,128.733,64Z" transform="translate(-80 -63.871)"/><g transform="translate(18 18.129)"><path class="b" d="M174.309,151H152.793A1.793,1.793,0,0,0,151,152.793v21.516a1.793,1.793,0,0,0,1.793,1.793h21.516a1.793,1.793,0,0,0,1.793-1.793V152.793A1.793,1.793,0,0,0,174.309,151Zm-12.551,3.586h3.586v3.586h-3.586Zm10.758,17.93h-17.93v-17.93h3.586v5.379a1.793,1.793,0,0,0,1.793,1.793h7.172a1.793,1.793,0,0,0,1.793-1.793v-5.379h3.586Z" transform="translate(-132.951 -132.951)"/><path class="b" d="M59.407,28.807H53.84A23.346,23.346,0,0,0,32.393,7.36V1.793a1.793,1.793,0,0,0-3.586,0V7.36A23.346,23.346,0,0,0,7.36,28.807H1.793a1.793,1.793,0,0,0,0,3.586H7.36A23.346,23.346,0,0,0,28.807,53.84v5.567a1.793,1.793,0,1,0,3.586,0V53.84A23.346,23.346,0,0,0,53.84,32.393h5.567a1.793,1.793,0,1,0,0-3.586ZM32.393,50.24V48.53a1.793,1.793,0,0,0-3.586,0V50.24A19.755,19.755,0,0,1,10.96,32.393H12.67a1.793,1.793,0,1,0,0-3.586H10.96A19.755,19.755,0,0,1,28.807,10.96V12.67a1.793,1.793,0,1,0,3.586,0V10.96A19.755,19.755,0,0,1,50.24,28.807H48.53a1.793,1.793,0,0,0,0,3.586H50.24A19.755,19.755,0,0,1,32.393,50.24Z"/><path class="b" d="M32.793,41.758a1.793,1.793,0,0,0,1.793-1.793V34.586h5.379a1.793,1.793,0,1,0,0-3.586H32.793A1.793,1.793,0,0,0,31,32.793v7.172A1.793,1.793,0,0,0,32.793,41.758Z" transform="translate(-27.295 -27.295)"/><path class="b" d="M39.965,398.172H34.586v-5.379a1.793,1.793,0,1,0-3.586,0v7.172a1.793,1.793,0,0,0,1.793,1.793h7.172a1.793,1.793,0,0,0,0-3.586Z" transform="translate(-27.295 -344.263)"/><path class="b" d="M399.965,391a1.793,1.793,0,0,0-1.793,1.793v5.379h-5.379a1.793,1.793,0,0,0,0,3.586h7.172a1.793,1.793,0,0,0,1.793-1.793v-7.172A1.793,1.793,0,0,0,399.965,391Z" transform="translate(-344.263 -344.263)"/><path class="b" d="M392.793,34.586h5.379v5.379a1.793,1.793,0,0,0,3.586,0V32.793A1.793,1.793,0,0,0,399.965,31h-7.172a1.793,1.793,0,1,0,0,3.586Z" transform="translate(-344.263 -27.295)"/></g></g></svg>