<svg xmlns="http://www.w3.org/2000/svg" width="97.466" height="97.466" viewBox="0 0 97.466 97.466"><defs><style>.a{fill:#fff;fill-rule:evenodd;}.b{fill:#3584d5;}</style></defs><path class="a" d="M128.733,64A48.733,48.733,0,1,1,80,112.733,48.733,48.733,0,0,1,128.733,64Z" transform="translate(-80 -64)"/><path class="b" d="M12.374,23.062A10.687,10.687,0,1,0,23.061,12.375,10.7,10.7,0,0,0,12.374,23.062Zm16.874,0a6.187,6.187,0,1,1-6.187-6.187,6.194,6.194,0,0,1,6.187,6.187Zm22.6,31.569-6.278-6.992A10.119,10.119,0,1,0,42.2,50.62l6.3,7.017Zm-20.123-12.9a5.625,5.625,0,1,1,5.625,5.625A5.631,5.631,0,0,1,31.723,41.735ZM28.2,53.14c-2.138,1.989-3.616,3.189-3.73,3.282l-1.414,1.142-1.414-1.142A94.8,94.8,0,0,1,10.959,45.973C3.687,37.624,0,30.13,0,23.7v-.638a23.061,23.061,0,1,1,46.121,0V23.7a20.123,20.123,0,0,1-.889,5.725A14.547,14.547,0,0,0,41.081,27.6a15.341,15.341,0,0,0,.541-3.9v-.638a18.561,18.561,0,1,0-37.122,0V23.7c0,10.867,14,24.022,18.561,28.017.569-.5,1.285-1.14,2.1-1.9A14.747,14.747,0,0,0,28.2,53.14Zm0,0" transform="translate(23 19.999)"/></svg>