<svg xmlns="http://www.w3.org/2000/svg" width="183" height="99.038" viewBox="0 0 183 99.038"><defs><style>.a{fill:#93c144;}.a,.b,.c{fill-rule:evenodd;}.b{fill:#3584d5;}.c{fill:#94c245;}.d{fill:#3d82d3;font-size:24px;font-family:Heebo-Bold, Heebo;font-weight:700;letter-spacing:0.021em;}.e{fill:#fff;font-size:9.5px;font-family:Heebo-Light, Heebo;font-weight:300;letter-spacing:0.1em;}</style></defs><g transform="translate(-225 -122)"><g transform="translate(275.365 122)"><path class="a" d="M2051.794,615.138a24.766,24.766,0,1,0,12.582,47.449.479.479,0,0,0,.307-.46V652.019a.5.5,0,0,0-.8-.4,14.846,14.846,0,0,1-6.558,2.826,15.022,15.022,0,0,1-4.93,0l-.207-.034a14.941,14.941,0,0,1,5.137-29.436l.195.033a14.942,14.942,0,0,1,12.279,14.7V663.2a.5.5,0,0,0,.5.5h8.83a.5.5,0,0,0,.5-.5V639.714a24.779,24.779,0,0,0-27.831-24.576Z" transform="translate(-2030.097 -601.449)"/><path class="b" d="M2089.95,666.1a6.126,6.126,0,1,0,6.126,6.126,6.126,6.126,0,0,0-6.126-6.126Z" transform="translate(-2065.132 -633.909)"/><path class="b" d="M2076.636,593.459q.631.455,1.238.944a.5.5,0,0,0,.7-.075l5.537-6.878a.5.5,0,0,0-.075-.7A39.036,39.036,0,0,0,2064.3,578.4a39.416,39.416,0,0,0-9.681,0,39.035,39.035,0,0,0-19.739,8.354.5.5,0,0,0-.076.7l5.538,6.878a.5.5,0,0,0,.7.075q.606-.489,1.238-.944a29.232,29.232,0,0,1,13.542-5.311,29.57,29.57,0,0,1,7.271,0,29.237,29.237,0,0,1,13.543,5.311Z" transform="translate(-2034.693 -578.098)"/></g><g transform="translate(225 135.641)"><path class="a" d="M2214,622.169a21.906,21.906,0,0,0-38.16,14.707v28.68a.533.533,0,0,0,.531.531h9.412a.533.533,0,0,0,.531-.531v-28.68a11.454,11.454,0,1,1,22.908,0v28.68a.533.533,0,0,0,.531.531h9.412a.532.532,0,0,0,.531-.531v-28.68a11.454,11.454,0,1,1,22.908,0v28.68a.533.533,0,0,0,.531.531h9.412a.532.532,0,0,0,.531-.531v-28.68a21.905,21.905,0,0,0-38.16-14.707.619.619,0,0,1-.916,0Z" transform="translate(-2071.478 -614.949)"/><path class="c" d="M1914.108,615.127a23.278,23.278,0,0,0-20.392,23.1v35.1a.47.47,0,0,0,.468.468h8.3a.47.47,0,0,0,.468-.468v-35.1a14.046,14.046,0,0,1,16.356-13.849l.183.03a14.042,14.042,0,0,1-4.816,27.667l-.195-.033a13.934,13.934,0,0,1-5.969-2.623.468.468,0,0,0-.751.372v9.5a.452.452,0,0,0,.288.433,23.206,23.206,0,0,0,6.061,1.6,23.463,23.463,0,0,0,5.765,0,23.276,23.276,0,0,0-5.765-46.194Z" transform="translate(-1893.716 -614.949)"/><text class="d" transform="translate(104.16 67.435)"><tspan x="0" y="0">xpress</tspan></text><text class="e" transform="translate(0 81.397)"><tspan x="0" y="0">PAYMENT ASSOCIATION MERCHANT</tspan></text></g></g></svg>