<svg xmlns="http://www.w3.org/2000/svg" xmlns:xlink="http://www.w3.org/1999/xlink" width="1914.818" height="888.914" viewBox="0 0 1914.818 888.914"><defs><style>.a{fill:#101820;}.b{fill:#fff;}.c{opacity:0.2;mix-blend-mode:luminosity;isolation:isolate;fill:url(#a);}.d,.f,.g,.i{fill:none;}.d,.f,.g{stroke:#fff;}.d,.g{stroke-linecap:round;}.d{stroke-width:2px;}.e{opacity:0.13;}.f{stroke-width:5px;}.g{stroke-linejoin:round;stroke-width:10px;}.h{stroke:none;}</style><linearGradient id="a" x1="0.5" x2="0.5" y2="1" gradientUnits="objectBoundingBox"><stop offset="0" stop-color="aqua"/><stop offset="0.479" stop-color="#f0f"/><stop offset="1" stop-color="#29abe2" stop-opacity="0.2"/></linearGradient></defs><g transform="translate(101 5)"><rect class="a" width="1874.667" height="850" transform="translate(-101)"/><path class="b" d="M1013.727,0H963.6L195.848,858.788h817.879Z" transform="translate(800.091)"/><path class="c" d="M1419.625-6H1141.651l-786.5,856.25h294.5Z" transform="translate(346.89 1)"/><g transform="translate(1089.167 877.5)"><line class="d" x1="5" y2="5"/></g><g class="e" transform="translate(-140.679 -10)"><g class="f" transform="translate(154 704)"><rect class="h" width="33" height="33" rx="7"/><rect class="i" x="2.5" y="2.5" width="28" height="28" rx="4.5"/></g><g class="f" transform="translate(904 176)"><rect class="h" width="68" height="69" rx="34"/><rect class="i" x="2.5" y="2.5" width="63" height="64" rx="31.5"/></g><g class="f" transform="translate(829 256)"><rect class="h" width="19" height="19" rx="9.5"/><rect class="i" x="2.5" y="2.5" width="14" height="14" rx="7"/></g><g class="f" transform="translate(453 211)"><rect class="h" width="34" height="34" rx="8"/><rect class="i" x="2.5" y="2.5" width="29" height="29" rx="5.5"/></g><path class="g" d="M-771.713,1264.774l-16.366,30.253h32.563Z" transform="translate(1308.88 -516)"/></g></g></svg>