<svg xmlns="http://www.w3.org/2000/svg" width="73.627" height="83.866" viewBox="0 0 73.627 83.866"><defs><style>.a{fill:#01a7ed;}.b{fill:#4172c9;}.c{fill:#0535a8;}.d{fill:#0c306e;}</style></defs><g transform="translate(-31.254 0)"><path class="a" d="M162.322,103.652a27.252,27.252,0,0,1-.843,10.061c-5.561,20.572-30.655,19.459-34.277,19.459S122.729,137,122.729,137l-2.71,13.4a7.673,7.673,0,0,1-.3,1.241L116.947,165.2s-.514,3.664,2.759,3.664h8.17s3.765.241,4.5-4.467l2.71-13.4s.842-3.823,4.473-3.823,28.716,1.113,34.278-19.459C175.542,121.421,176.809,107.9,162.322,103.652Z" transform="translate(-71.632 -86.674)"/><path class="b" d="M70.549,24.217h18.3a36.966,36.966,0,0,1,10.373,1.3c-.9-7.473-5.948-15.3-22.733-15.3h-18.3s-3.8-.2-4.743,4.382L41.488,73.064s-.514,3.664,2.759,3.664h8.17A4.335,4.335,0,0,0,56.623,73.5l9.184-44.9C66.745,24.017,70.549,24.217,70.549,24.217Z" transform="translate(-8.533 -8.54)"/><path class="c" d="M152.4,130.348s.842-3.823,4.473-3.823,28.716,1.113,34.277-19.459A27.249,27.249,0,0,0,191.989,97a36.972,36.972,0,0,0-10.373-1.3h-18.3s-3.8-.2-4.743,4.382Z" transform="translate(-101.299 -80.026)"/><g transform="translate(31.254 0)"><path class="d" d="M104.131,27.8c-1.587-5.819-5.706-9.983-11.943-12.1A16.862,16.862,0,0,0,86.348,5.24C82.176,1.765,75.988,0,67.956,0H49.693c-1.829-.076-5.455,1.021-6.418,5.718L31.318,64.189q-.011.051-.018.1a5.641,5.641,0,0,0,1.086,4.17,4.216,4.216,0,0,0,3.326,1.4h8.125c.058,0,.119,0,.182,0a5.45,5.45,0,0,0,1.4-.2l-1.744,8.527q-.011.051-.018.1a5.641,5.641,0,0,0,1.086,4.17,4.216,4.216,0,0,0,3.326,1.4H56.2q.1,0,.207,0c1.891,0,5.24-1.191,5.988-5.846l2.7-13.346c.046-.2.628-2.5,2.839-2.5l.521,0a52.808,52.808,0,0,0,17.319-2.4,29.971,29.971,0,0,0,10.753-6.126,25.008,25.008,0,0,0,7.3-12.176A27.125,27.125,0,0,0,104.131,27.8Zm-15.9-1.2C85.007,38.54,74.162,44.836,56.846,44.835c-.239,0-.481,0-.723,0-.219,0-.4,0-.554,0a6.156,6.156,0,0,0-1.705.232l5.045-24.666c.588-2.869,2.535-3.048,3.009-3.048h.02a.681.681,0,0,0,.078,0h18.3a37.417,37.417,0,0,1,8.817.943A26.45,26.45,0,0,1,88.234,26.6ZM43.977,66.519a.752.752,0,0,0-.095,0H35.713c-.586,0-.749-.184-.8-.244a2.313,2.313,0,0,1-.306-1.482l11.944-58.4c.588-2.869,2.535-3.048,3.009-3.048h.02a.681.681,0,0,0,.078,0h18.3c11.683,0,18.6,3.832,20.613,11.4a42.778,42.778,0,0,0-8.253-.739H62.053c-1.828-.077-5.455,1.021-6.418,5.718l-9.162,44.8A2.634,2.634,0,0,1,43.977,66.519ZM52.728,50.68c.078-.317.7-2.511,2.841-2.511l.521,0a52.8,52.8,0,0,0,17.319-2.4,29.971,29.971,0,0,0,10.753-6.126,25.008,25.008,0,0,0,7.3-12.176,30.532,30.532,0,0,0,1.057-8.083c11.141,4.692,9.423,16.241,8.078,21.213C97.367,52.543,86.522,58.838,69.206,58.838c-.239,0-.481,0-.723,0-.219,0-.4,0-.554,0-3.934,0-5.713,3.359-6.1,5.135l-.006.028-2.71,13.4c0,.024-.009.048-.013.072-.46,2.93-2.334,3.063-2.758,3.058a.765.765,0,0,0-.1,0H48.073c-.586,0-.749-.184-.8-.244a2.313,2.313,0,0,1-.306-1.482Z" transform="translate(-31.254 0)"/><path class="d" d="M100.774,210.089a1.671,1.671,0,0,0-1.971,1.3l-.159.779a1.671,1.671,0,1,0,3.274.668l.159-.779A1.671,1.671,0,0,0,100.774,210.089Z" transform="translate(-87.577 -175.648)"/><path class="d" d="M72.254,248.106a1.671,1.671,0,0,0-1.971,1.3l-4.226,20.705a1.671,1.671,0,1,0,3.274.668l4.226-20.705A1.67,1.67,0,0,0,72.254,248.106Z" transform="translate(-60.328 -207.438)"/></g></g></svg>