<svg xmlns="http://www.w3.org/2000/svg" width="70.559" height="70.489" viewBox="0 0 70.559 70.489"><defs><style>.a{fill:#e49280;}.b{fill:#dd7f66;}.c{fill:#f4c6bb;}.d{fill:#f0bdb4;}.e{fill:#fef0ae;}.f{fill:#fee45a;}</style></defs><g transform="translate(0 -0.255)"><g transform="translate(1.033 17.443)"><path class="a" d="M64.251,177.243H11.885a4.392,4.392,0,0,1-4.392-4.392V124.974H68.644V172.85A4.393,4.393,0,0,1,64.251,177.243Z" transform="translate(-7.493 -124.974)"/></g><g transform="translate(55.038 17.442)"><path class="b" d="M406.514,124.969v47.877a4.393,4.393,0,0,1-4.392,4.393h-2.753a4.393,4.393,0,0,0,4.392-4.393V124.969Z" transform="translate(-399.369 -124.969)"/></g><g transform="translate(1.033 11.227)"><path class="c" d="M68.644,92.3H13.709a6.216,6.216,0,0,1,0-12.432H64.251a4.392,4.392,0,0,1,4.392,4.392Z" transform="translate(-7.493 -79.869)"/></g><g transform="translate(44.235 38.04)"><path class="c" d="M339.442,285.506H326.518a5.538,5.538,0,1,1,0-11.075h12.924a1.922,1.922,0,0,1,1.922,1.922v7.232A1.922,1.922,0,0,1,339.442,285.506Z" transform="translate(-320.98 -274.431)"/></g><g transform="translate(60.02 38.04)"><path class="d" d="M440.121,276.354v7.232a1.922,1.922,0,0,1-1.922,1.921h-2.676a1.922,1.922,0,0,0,1.922-1.921v-7.232a1.922,1.922,0,0,0-1.922-1.922H438.2A1.922,1.922,0,0,1,440.121,276.354Z" transform="translate(-435.523 -274.432)"/></g><g transform="translate(48.093 41.513)"><circle class="a" cx="2.064" cy="2.064" r="2.064"/></g><g transform="translate(48.332 41.523)"><path class="b" d="M354.6,301.761a2.064,2.064,0,0,1-3.889.964,1.864,1.864,0,0,0,.2.01,2.065,2.065,0,0,0,1.826-3.027A2.064,2.064,0,0,1,354.6,301.761Z" transform="translate(-350.707 -299.707)"/></g><g transform="translate(43.991 1.288)"><circle class="e" cx="12.768" cy="12.768" r="12.768"/></g><g transform="translate(47.716 2.945)"><path class="f" d="M368.052,30.883A12.768,12.768,0,0,1,346.241,39.9a12.768,12.768,0,0,0,15.337-20.124A12.763,12.763,0,0,1,368.052,30.883Z" transform="translate(-346.241 -19.772)"/></g><g transform="translate(0 0.255)"><path d="M374.867,110.175a1.031,1.031,0,0,0,1.176-.866,3.485,3.485,0,0,0-3.738-4,1.033,1.033,0,1,0,.173,2.058A1.42,1.42,0,0,1,374,109a1.032,1.032,0,0,0,.866,1.176Z" transform="translate(-320.181 -90.824)"/><path d="M378.636,86.5a1.031,1.031,0,0,0,1.176-.866,6.884,6.884,0,0,0-7.385-7.9,1.033,1.033,0,1,0,.173,2.058,4.819,4.819,0,0,1,5.17,5.529A1.032,1.032,0,0,0,378.636,86.5Z" transform="translate(-320.286 -67.036)"/><path d="M383.006,61.986a1.031,1.031,0,0,0,1.176-.866,10.323,10.323,0,0,0-11.074-11.841,1.033,1.033,0,0,0,.173,2.058,8.258,8.258,0,0,1,8.86,9.474A1.032,1.032,0,0,0,383.006,61.986Z" transform="translate(-320.873 -42.491)"/><path d="M341.481,295.241a3.1,3.1,0,1,0,3.1-3.1A3.1,3.1,0,0,0,341.481,295.241Zm3.1-1.031a1.031,1.031,0,1,1-1.031,1.031A1.032,1.032,0,0,1,344.577,294.21Z" transform="translate(-294.421 -251.919)"/><path d="M56.759.255a13.825,13.825,0,0,0-13.25,9.939H7.249A7.257,7.257,0,0,0,0,17.443V51.58a1.033,1.033,0,0,0,2.065,0V22.5a7.226,7.226,0,0,0,5.183,2.189H47.978a13.809,13.809,0,0,0,13.173,2.453v9.862H49.772a6.57,6.57,0,1,0,0,13.141H61.151V65.319a3.364,3.364,0,0,1-3.36,3.36H5.425a3.364,3.364,0,0,1-3.36-3.36V56.282a1.033,1.033,0,0,0-2.065,0v9.037a5.431,5.431,0,0,0,5.425,5.425H57.791a5.431,5.431,0,0,0,5.425-5.425V50.1a2.957,2.957,0,0,0,2.435-2.906V39.961a2.957,2.957,0,0,0-2.435-2.906V26.26A13.819,13.819,0,0,0,67.6,22.6a1.033,1.033,0,0,0-1.621-1.28,11.683,11.683,0,1,1,2.029-3.9,1.033,1.033,0,0,0,1.979.591A13.811,13.811,0,0,0,56.759.255Zm6.827,39.706v7.232a.89.89,0,0,1-.889.889H49.772a4.505,4.505,0,1,1,0-9.01H62.7a.89.89,0,0,1,.889.889ZM45.95,22.626H7.249a5.183,5.183,0,1,1,0-10.367H43.075a13.85,13.85,0,0,0,.085,4.151H8.958a1.033,1.033,0,1,0,0,2.065H43.684a13.789,13.789,0,0,0,2.266,4.151Z" transform="translate(0 -0.255)"/></g></g></svg>