<svg xmlns="http://www.w3.org/2000/svg" width="72.418" height="72.326" viewBox="0 0 72.418 72.326"><defs><style>.a{fill:#3584d5;}.b{fill:#004489;}.c{fill:#eac092;}</style></defs><g transform="translate(0 -0.296)"><path class="a" d="M112.185,36.458l3.575-1.445a6.727,6.727,0,0,0,3.755-8.65L111.146,4.607A6.734,6.734,0,0,0,102.439.749l-.147.059L60.478,18.142a6.734,6.734,0,0,0-3.722,8.576l1.684,4.489,2.826,7.744h42.4Z" transform="translate(-47.547 0)"/><path d="M114.884,134.2l-2.644-6.609,10.575-5.288,2.644,6.609Z" transform="translate(-94.744 -102.988)"/><g transform="translate(10.049 14.217)"><path d="M329.475,128.754l11.9-5.29,1.013,2.279-11.9,5.29Z" transform="translate(-288.165 -118.185)"/><path d="M278.493,97.531,295.676,89.6l1.045,2.263-17.183,7.931Z" transform="translate(-245.13 -89.6)"/><path class="b" d="M122.629,190.315c.111-.045.2-.113.312-.163a6.525,6.525,0,0,0-6.485-5.874H64.464l.838,2.236,2.831,7.74h42.4l8.521-2.494Z" transform="translate(-64.464 -169.519)"/></g><path class="c" d="M6.547,200.278h53a6.547,6.547,0,0,1,6.547,6.547v28.059a6.547,6.547,0,0,1-6.547,6.547h-53A6.547,6.547,0,0,1,0,234.884V206.825A6.547,6.547,0,0,1,6.547,200.278Z" transform="translate(0 -168.809)"/><g transform="translate(0 38.952)"><path d="M263.482,359.243a7.482,7.482,0,1,1,7.482-7.482A7.482,7.482,0,0,1,263.482,359.243Zm0-12.471a4.988,4.988,0,1,0,4.988,4.988A4.988,4.988,0,0,0,263.482,346.772Z" transform="translate(-216.094 -329.313)"/><path d="M311.482,359.243a7.482,7.482,0,1,1,7.482-7.482A7.482,7.482,0,0,1,311.482,359.243Zm0-12.471a4.988,4.988,0,1,0,4.988,4.988A4.988,4.988,0,0,0,311.482,346.772Z" transform="translate(-256.612 -329.313)"/><path d="M0,248.278H66.094v9.976H0Z" transform="translate(0 -248.278)"/></g></g></svg>