<svg xmlns="http://www.w3.org/2000/svg" xmlns:xlink="http://www.w3.org/1999/xlink" width="577.186" height="569.1" viewBox="0 0 577.186 569.1"><defs><style>.a{fill:none;}.b{fill:#ffca28;}.c,.m{fill:#102770;}.d,.m{opacity:0.6;}.e{fill:#fff;}.f{opacity:0.2;}.g{fill:#dc7633;}.h{fill:#f9b32f;}.i{opacity:0.1;}.j{clip-path:url(#a);}.k{opacity:0.5;}.l{opacity:0.3;}.n{fill:#ae7c5b;}.o{fill:#8bc34a;}.p{fill:#19b5fe;}.q{fill:#ff5722;}</style><clipPath id="a"><path class="a" d="M1555.569,1457.5H1320.852a15.93,15.93,0,1,0,0,31.86h234.717a15.93,15.93,0,1,0,0-31.86Z" transform="translate(-1304.922 -1457.5)"/></clipPath></defs><g transform="translate(-535.606 -547.498)"><g transform="translate(638.223 723.001)"><g transform="translate(271.645 58.841)"><path class="b" d="M2443.061,1733.359h14.451a53.643,53.643,0,0,1,26.623,6.879c12.375,7.065,26.21,21.085,26.21,48.46v32.541s1.415,70.033-70.033,70.033h-21.252l16.74-33.651s27.867,6.217,40.289-20.577a35.081,35.081,0,0,0,3.13-14.767V1790.55a34.953,34.953,0,0,0-3.537-15.646c-2.83-5.659-7.782-11.672-16.271-13.087h-16.351Z" transform="translate(-2415.55 -1729.849)"/><path class="c" d="M2426.321,1880.792h-21.252a3.51,3.51,0,0,1-3.143-5.074l16.74-33.651a3.511,3.511,0,0,1,3.907-1.862c1.022.223,25.3,5.2,36.34-18.627a31.345,31.345,0,0,0,2.805-13.29V1776.56a31.607,31.607,0,0,0-3.167-14.077c-3.174-6.349-7.693-10.1-13.434-11.146h-16.048a3.51,3.51,0,0,1-3.51-3.51v-28.458a3.51,3.51,0,0,1,3.51-3.51h14.452a57.23,57.23,0,0,1,28.364,7.341c12.765,7.288,27.98,22.14,27.98,51.508v32.54c.025,1.243.406,32.367-20.717,53.92C2466.388,1874.19,2448.614,1880.792,2426.321,1880.792Zm-15.586-7.02h15.586c20.335,0,36.423-5.893,47.814-17.517,19.08-19.469,18.717-48.643,18.711-48.935v-32.611c0-26-13.291-39.046-24.441-45.412a50.2,50.2,0,0,0-24.883-6.417h-10.941v21.438h12.842a3.554,3.554,0,0,1,.576.047c8.1,1.349,14.608,6.529,18.833,14.98a38.66,38.66,0,0,1,3.908,17.216v31.728a38.326,38.326,0,0,1-3.455,16.243c-11.054,23.841-33.6,23.76-41.461,22.932Z" transform="translate(-2401.558 -1715.859)"/><g transform="translate(20.676 7.02)"><g class="d" transform="translate(0 118.613)"><path class="e" d="M2504.641,2351.392l1.589-3.194c5.183.546,16.737.765,27.178-5.97C2523.424,2350.856,2511.375,2351.73,2504.641,2351.392Z" transform="translate(-2504.641 -2342.228)"/></g><g class="d" transform="translate(10.345)"><path class="e" d="M2593.72,1887.287c19.059-19.406,18.757-48.689,18.751-49.05V1805.7c0-26-13.291-39.046-24.441-45.412a50.2,50.2,0,0,0-24.883-6.417h-6.93v-3.008h10.942a50.2,50.2,0,0,1,24.883,6.417c11.15,6.366,24.441,19.412,24.441,45.412v32.54c.006.36.308,29.644-18.751,49.05a53.2,53.2,0,0,1-8.035,6.689A53.355,53.355,0,0,0,2593.72,1887.287Z" transform="translate(-2556.218 -1750.859)"/></g></g><g class="f" transform="translate(33.357 31.967)"><path class="c" d="M2592.83,1950.466a37.753,37.753,0,0,0,2.875-14.767v-31.728a37.549,37.549,0,0,0-3.249-15.646c-2.6-5.659-7.146-11.672-14.943-13.087h11.1c7.8,1.415,12.344,7.428,14.943,13.087a37.549,37.549,0,0,1,3.248,15.646V1935.7a37.753,37.753,0,0,1-2.875,14.767c-10.11,23.745-31.358,21.564-36.063,20.761C2576.088,1969.909,2586.585,1965.135,2592.83,1950.466Z" transform="translate(-2567.866 -1875.238)"/></g><g class="f" transform="translate(28.886 3.51)"><path class="c" d="M2545.575,1761.816v-28.457h16.017l-3.223,28.457Z" transform="translate(-2545.575 -1733.359)"/></g><g class="f" transform="translate(3.51 80.733)"><path class="c" d="M2510.345,2129.023v-10.657c-.061,6.457-2.234,62.063-58.529,68.744a5.577,5.577,0,0,1-5.7-7.988l6.6-13.377c-8.574.8-12.582-.34-12.582-.34l-14.009,22.372h-1.451l-5.611,11.279h21.252C2511.76,2199.056,2510.345,2129.023,2510.345,2129.023Z" transform="translate(-2419.06 -2118.366)"/></g></g><g transform="translate(0 58.841)"><path class="b" d="M1132.013,1733.359h-14.452a53.643,53.643,0,0,0-26.623,6.879c-12.374,7.065-26.21,21.085-26.21,48.46v32.541s-1.415,70.033,70.033,70.033h21.252l-16.74-33.651s-27.867,6.217-40.289-20.577a35.077,35.077,0,0,1-3.131-14.767V1790.55a34.949,34.949,0,0,1,3.537-15.646c2.83-5.659,7.781-11.672,16.271-13.087h16.352Z" transform="translate(-1061.215 -1729.849)"/><path class="c" d="M1142.02,1880.792h-21.251c-22.293,0-40.067-6.6-52.828-19.624-21.122-21.553-20.741-52.677-20.715-53.991v-32.469c0-29.369,15.215-44.22,27.98-51.508a57.237,57.237,0,0,1,28.363-7.341h14.452a3.51,3.51,0,0,1,3.51,3.51v28.458a3.511,3.511,0,0,1-3.51,3.51h-16.048c-5.741,1.048-10.26,4.8-13.434,11.146a31.605,31.605,0,0,0-3.167,14.077v31.728a31.35,31.35,0,0,0,2.805,13.29c11.045,23.825,35.323,18.849,36.349,18.626a3.519,3.519,0,0,1,3.9,1.864l16.74,33.651a3.51,3.51,0,0,1-3.143,5.074Zm-38.452-157.913a50.21,50.21,0,0,0-24.883,6.417c-11.149,6.366-24.44,19.412-24.44,45.412v32.54c-.006.36-.309,29.643,18.751,49.049,11.388,11.6,27.461,17.474,47.773,17.474h15.585l-13.087-26.309c-7.867.829-30.4.91-41.459-22.932a38.318,38.318,0,0,1-3.456-16.243V1776.56a38.663,38.663,0,0,1,3.908-17.216c4.225-8.451,10.738-13.63,18.833-14.98a3.557,3.557,0,0,1,.577-.047h12.842v-21.437Z" transform="translate(-1047.222 -1715.859)"/><g transform="translate(7.022 7.02)"><g class="d" transform="translate(41.844 118.613)"><path class="e" d="M1319.618,2351.392l-1.589-3.194c-5.183.546-16.737.765-27.178-5.97C1300.835,2350.856,1312.884,2351.73,1319.618,2351.392Z" transform="translate(-1290.851 -2342.228)"/></g><g class="d"><path class="e" d="M1105,1887.287c-19.059-19.406-18.757-48.689-18.752-49.05V1805.7c0-26,13.291-39.046,24.441-45.412a50.2,50.2,0,0,1,24.883-6.417h6.93v-3.008h-10.942a50.2,50.2,0,0,0-24.883,6.417c-11.15,6.366-24.441,19.412-24.441,45.412v32.54c-.006.36-.308,29.644,18.751,49.05a53.211,53.211,0,0,0,8.035,6.689A53.282,53.282,0,0,1,1105,1887.287Z" transform="translate(-1082.232 -1750.859)"/></g></g><g class="f" transform="translate(26.014 31.967)"><path class="c" d="M1190.891,1950.466a37.751,37.751,0,0,1-2.875-14.767v-31.728a37.547,37.547,0,0,1,3.249-15.646c2.6-5.659,7.146-11.672,14.943-13.087h-11.1c-7.8,1.415-12.344,7.428-14.943,13.087a37.547,37.547,0,0,0-3.248,15.646V1935.7a37.751,37.751,0,0,0,2.875,14.767c10.11,23.745,31.358,21.564,36.063,20.761C1207.634,1969.909,1197.137,1965.135,1190.891,1950.466Z" transform="translate(-1176.918 -1875.238)"/></g><g class="f" transform="translate(53.406 3.51)"><path class="c" d="M1329.5,1761.816v-28.457h-16.017l3.223,28.457Z" transform="translate(-1313.486 -1733.359)"/></g><g class="f" transform="translate(3.511 80.733)"><path class="c" d="M1064.728,2129.023v-10.657c.061,6.457,2.234,62.063,58.529,68.744a5.577,5.577,0,0,0,5.7-7.988l-6.6-13.377c8.574.8,12.582-.34,12.582-.34l14.008,22.372h1.452l5.611,11.279h-21.252C1063.313,2199.056,1064.728,2129.023,1064.728,2129.023Z" transform="translate(-1064.726 -2118.366)"/></g></g><g transform="translate(150.847 246.211)"><path class="b" d="M1878.036,2715.02H1816.8l12.5-47.492h36.244Z" transform="translate(-1813.286 -2664.018)"/><path class="c" d="M1864.047,2704.541h-61.24a3.511,3.511,0,0,1-3.394-4.4l12.5-47.492a3.51,3.51,0,0,1,3.395-2.617h36.244a3.51,3.51,0,0,1,3.395,2.617l12.5,47.492a3.51,3.51,0,0,1-3.394,4.4Zm-56.687-7.02h52.134l-10.651-40.472h-30.833Z" transform="translate(-1799.297 -2650.029)"/></g><g class="d" transform="translate(158.91 253.231)"><path class="e" d="M1850.148,2685.029,1839.5,2725.5h5.015l10.651-40.472Z" transform="translate(-1839.497 -2685.029)"/></g><g transform="translate(129.839 293.703)"><path class="b" d="M22.5,0H80.76a22.5,22.5,0,0,1,22.5,22.5v0a0,0,0,0,1,0,0H0a0,0,0,0,1,0,0v0A22.5,22.5,0,0,1,22.5,0Z" transform="translate(3.51 3.51)"/><path class="c" d="M1801.324,2916.325H1698.067a3.51,3.51,0,0,1-3.51-3.51V2906a19.212,19.212,0,0,1,19.19-19.19h71.9a19.211,19.211,0,0,1,19.19,19.19v6.817A3.51,3.51,0,0,1,1801.324,2916.325Zm-99.747-7.02h96.237V2906a12.183,12.183,0,0,0-12.17-12.17h-71.9a12.184,12.184,0,0,0-12.17,12.17Z" transform="translate(-1694.557 -2886.808)"/></g><g class="d" transform="translate(136.859 300.724)"><path class="e" d="M1734.57,2935.987a12.183,12.183,0,0,1,12.169-12.169h71.9a12.114,12.114,0,0,1,1.9.164,12.092,12.092,0,0,0-6.918-2.17h-71.9a12.183,12.183,0,0,0-12.17,12.169v3.306h5.015Z" transform="translate(-1729.556 -2921.812)"/></g><g transform="translate(81.795 316.2)"><path class="g" d="M54.991,0h89.361a54.991,54.991,0,0,1,54.991,54.991v0a0,0,0,0,1,0,0H0a0,0,0,0,1,0,0v0A54.991,54.991,0,0,1,54.991,0Z" transform="translate(3.51 3.51)"/><path class="c" d="M1657.879,3060.98H1458.536a3.51,3.51,0,0,1-3.51-3.51v-20.308a38.237,38.237,0,0,1,38.193-38.193H1623.2a38.236,38.236,0,0,1,38.193,38.193v20.308A3.51,3.51,0,0,1,1657.879,3060.98Zm-195.833-7.02h192.323v-16.8a31.208,31.208,0,0,0-31.173-31.173H1493.219a31.208,31.208,0,0,0-31.173,31.173Z" transform="translate(-1455.026 -2998.969)"/></g><g class="d" transform="translate(88.815 323.22)"><path class="e" d="M1496.044,3068.152a31.209,31.209,0,0,1,31.173-31.173h129.976a31.023,31.023,0,0,1,10.775,1.921,30.98,30.98,0,0,0-16.792-4.93H1521.2a31.209,31.209,0,0,0-31.173,31.173v16.8h6.017Z" transform="translate(-1490.027 -3033.97)"/></g><g transform="translate(65.63 1.44)"><path class="b" d="M1508.409,1447.181v0h-1.275v0l-115.2.171V1583.4a142.831,142.831,0,0,0,17.675,69.645c15.663,28.074,44.651,57.162,97.524,57.628v.022c.216,0,.422-.01.637-.011s.422.011.637.011v-.022c52.872-.465,81.861-29.554,97.524-57.628a142.83,142.83,0,0,0,17.675-69.645v-136.05Z" transform="translate(-1388.425 -1443.669)"/><path class="c" d="M1494.419,1700.216c-.143,0-.283,0-.422-.006l-.231,0-.2,0a5.857,5.857,0,0,1-.848-.019c-55.725-.642-85.225-32.649-100.163-59.424a146.634,146.634,0,0,1-18.119-71.355v-136.05a3.51,3.51,0,0,1,3.5-3.51l116.474-.173.01,0,115.2.171a3.51,3.51,0,0,1,3.505,3.51v136.05a146.634,146.634,0,0,1-18.119,71.355c-14.939,26.776-44.434,58.786-100.165,59.424A3.542,3.542,0,0,1,1494.419,1700.216Zm-.653-7.031.32.005c.1-.009.2-.015.3-.016,42.238-.372,74.028-19.155,94.489-55.828a139.585,139.585,0,0,0,17.23-67.935V1436.866l-111.693-.166h0l-1.276,0-111.683.167v132.546a139.6,139.6,0,0,0,17.23,67.935c20.461,36.672,52.252,55.456,94.49,55.828q.153,0,.3.016Z" transform="translate(-1374.435 -1429.679)"/></g><g class="d" transform="translate(72.651 8.46)"><path class="e" d="M1432.683,1666.33a139.594,139.594,0,0,1-17.23-67.935V1465.85l111.683-.167,106.952.158v-.994l-112.969-.167-111.683.167v132.546a139.593,139.593,0,0,0,17.23,67.935c17.578,31.507,43.527,49.8,77.27,54.563C1473.111,1713.879,1449.2,1695.939,1432.683,1666.33Z" transform="translate(-1409.436 -1464.68)"/></g><g class="f" transform="translate(90.026 64.365)"><ellipse class="e" cx="23.524" cy="14.941" rx="23.524" ry="14.941" transform="translate(0 46.884) rotate(-85.229)"/></g><g class="f" transform="translate(72.651 8.46)"><path class="c" d="M1496.685,1718.633c.472-.058.932-.129,1.4-.19a128.721,128.721,0,0,0,20.061,1.71c.1,0,.206.007.307.016l.283,0,.317.006c.1-.01.2-.016.306-.017,42.238-.371,74.028-19.154,94.489-55.828a139.593,139.593,0,0,0,17.231-67.935V1464.842l-109.961-.162-111.683.167v43.917l.76.568,158.517,6.29a48.985,48.985,0,0,1,46.966,52.244C1611.814,1624.138,1587.721,1707.517,1496.685,1718.633Z" transform="translate(-1409.436 -1464.68)"/></g><g transform="translate(44.668 0)"><rect class="b" width="273.598" height="38.88" rx="19.44" transform="translate(3.51 3.51)"/><path class="c" d="M1527.591,1468.4H1292.873a22.95,22.95,0,0,1,0-45.9h234.718a22.95,22.95,0,0,1,0,45.9Zm-234.718-38.88a15.93,15.93,0,0,0,0,31.86h234.718a15.93,15.93,0,0,0,0-31.86Z" transform="translate(-1269.923 -1422.499)"/></g><g class="d" transform="translate(51.688 7.02)"><path class="e" d="M1309.937,1476.438a15.947,15.947,0,0,1,15.93-15.93h234.718a15.824,15.824,0,0,1,5.525,1.008,15.848,15.848,0,0,0-10.54-4.017H1320.852a15.918,15.918,0,0,0-5.525,30.852A15.879,15.879,0,0,1,1309.937,1476.438Z" transform="translate(-1304.922 -1457.5)"/></g><g class="f" transform="translate(152.692 266.379)"><path class="c" d="M1816.136,2758.368a117.806,117.806,0,0,0,24,2.619c7.947-.067,9.858,11.072,2.37,13.735-6.62,2.354-16.384,3.927-30.756,3.692l-3.253,4.065h64.239l-7.8-31.9s-31.568,7.894-47.665.38Z" transform="translate(-1808.498 -2750.582)"/></g><g class="f" transform="translate(133.583 297.281)"><path class="c" d="M1779.132,2905.636s1.587,19.115-65.9,16.675v3.659h105.462l-3.005-10.445S1812.917,2900.752,1779.132,2905.636Z" transform="translate(-1713.227 -2904.646)"/></g><g class="f" transform="translate(85.608 318.987)"><path class="c" d="M1587.876,3015.331s8.131,47.163-113.841,47.163l.813,5.285h199.628v-25.207S1663.092,3002.727,1587.876,3015.331Z" transform="translate(-1474.035 -3012.866)"/></g><g transform="translate(128.598 81.35)"><g transform="translate(3.015 3.009)"><path class="h" d="M1784.081,1945.471a9.041,9.041,0,0,1-5.337-1.769l-20.156-14.643a3.1,3.1,0,0,0-3.642,0l-20.154,14.643a9.05,9.05,0,0,1-5.338,1.769,9.247,9.247,0,0,1-7.443-3.829,8.973,8.973,0,0,1-1.249-8.133l7.7-23.693a3.09,3.09,0,0,0-1.126-3.464l-20.154-14.643a9.116,9.116,0,0,1,5.359-16.492h24.912a3.09,3.09,0,0,0,2.947-2.141l7.7-23.693a9.117,9.117,0,0,1,17.341,0l7.7,23.693a3.091,3.091,0,0,0,2.948,2.141H1801a9.117,9.117,0,0,1,5.359,16.492l-20.155,14.644a3.091,3.091,0,0,0-1.126,3.464l7.7,23.694a8.97,8.97,0,0,1-1.249,8.131A9.246,9.246,0,0,1,1784.081,1945.471Z" transform="translate(-1703.403 -1843.083)"/></g><path class="c" d="M1744.751,1834.1a6,6,0,0,1,5.809,4.221l7.7,23.693a6.109,6.109,0,0,0,5.81,4.22h24.912a6.108,6.108,0,0,1,3.59,11.049l-20.155,14.643a6.108,6.108,0,0,0-2.218,6.829l7.7,23.693a6.128,6.128,0,0,1-5.829,8.023,6.019,6.019,0,0,1-3.569-1.194l-20.155-14.643a6.107,6.107,0,0,0-7.18,0l-20.155,14.643a6.021,6.021,0,0,1-3.569,1.194,6.128,6.128,0,0,1-5.83-8.023l7.7-23.693a6.109,6.109,0,0,0-2.219-6.829l-20.154-14.643a6.108,6.108,0,0,1,3.59-11.049h24.912a6.108,6.108,0,0,0,5.809-4.22l7.7-23.693a6,6,0,0,1,5.809-4.221m0-6.017a11.945,11.945,0,0,0-11.532,8.379l-7.7,23.692a.091.091,0,0,1-.086.062h-24.912a12.125,12.125,0,0,0-7.127,21.935l20.154,14.643a.092.092,0,0,1,.032.1l-7.7,23.692a11.948,11.948,0,0,0,1.676,10.83,12.263,12.263,0,0,0,9.877,5.07,12.031,12.031,0,0,0,7.105-2.343L1744.7,1919.5a.088.088,0,0,1,.054-.017.082.082,0,0,1,.052.017l20.156,14.644a12.03,12.03,0,0,0,7.105,2.344,12.264,12.264,0,0,0,9.876-5.07,11.948,11.948,0,0,0,1.676-10.83l-7.7-23.693a.093.093,0,0,1,.033-.1l20.154-14.643a12.125,12.125,0,0,0-7.127-21.934h-24.912a.091.091,0,0,1-.087-.063l-7.7-23.693a11.944,11.944,0,0,0-11.531-8.378Z" transform="translate(-1688.373 -1828.083)"/><g class="d" transform="translate(71.502 36.472)"><path class="e" d="M2045.056,2010.519a6.108,6.108,0,0,0,5.809,4.22h24.913a5.945,5.945,0,0,1,4.125,1.6,6.006,6.006,0,0,0-5.937-4.736h-24.912a6.1,6.1,0,0,1-4.192-1.679Z" transform="translate(-2044.861 -2009.919)"/></g><g class="d" transform="translate(22.918 67.446)"><path class="e" d="M1804.763,2194.408l7.7-23.693a6.1,6.1,0,0,0-1.679-6.366,6.078,6.078,0,0,1-.133,3.226l-7.7,23.693a5.956,5.956,0,0,0,1.639,6.34A6.06,6.06,0,0,1,1804.763,2194.408Z" transform="translate(-1802.635 -2164.348)"/></g><g class="d" transform="translate(6.044 6.017)"><path class="e" d="M1726.422,1893.357h24.912a6.108,6.108,0,0,0,5.809-4.22l7.7-23.693a6.128,6.128,0,0,1,9.979-2.607l-.173-.534a6.108,6.108,0,0,0-11.618,0l-7.7,23.693a6.107,6.107,0,0,1-5.809,4.22H1724.61a6.1,6.1,0,0,0-4.16,10.561A6.106,6.106,0,0,1,1726.422,1893.357Z" transform="translate(-1718.504 -1858.083)"/></g><g class="f" transform="translate(56.806 7.947)"><path class="c" d="M1971.591,1868.71v48.575l14.42-20.8-10.025-28.778Z" transform="translate(-1971.591 -1867.704)"/></g><g class="f" transform="translate(26.514 57.529)"><path class="c" d="M1850.854,2114.9l-30.293,44.189,3.432,2.984,27.176-18.117Z" transform="translate(-1820.562 -2114.903)"/></g><g class="f" transform="translate(6.344 47.519)"><path class="c" d="M1720,2065l50.463,10.009-25.024,9.792Z" transform="translate(-1720 -2065)"/></g><g class="f" transform="translate(56.806 57.529)"><path class="c" d="M1971.591,2114.9l33.779,45.148-1-12.034-8.964-22.637Z" transform="translate(-1971.591 -2114.903)"/></g><g class="i" transform="translate(56.806 47.052)"><path class="c" d="M1971.591,2073.145l47.623-10.477-23.812,20.954Z" transform="translate(-1971.591 -2062.668)"/></g></g><g transform="translate(51.688 7.02)"><g class="j"><g class="k" transform="translate(22.608 -33.472)"><rect class="e" width="34.698" height="102.317" transform="matrix(0.754, 0.656, -0.656, 0.754, 67.168, 0)"/></g><g class="k" transform="translate(92.214 -31.487)"><rect class="e" width="15.361" height="102.317" transform="matrix(0.754, 0.656, -0.656, 0.754, 67.168, 0)"/></g></g></g><g class="f" transform="translate(313.895 12.021)"><path class="c" d="M2612.2,1482.434c.294.31.58.628.848.961C2612.782,1483.062,2612.5,1482.744,2612.2,1482.434Z" transform="translate(-2612.202 -1482.434)"/></g><g class="f" transform="translate(315.847 14.552)"><path class="c" d="M2621.933,1495.049c.189.3.378.606.547.922C2622.311,1495.654,2622.122,1495.352,2621.933,1495.049Z" transform="translate(-2621.933 -1495.049)"/></g><g class="f" transform="translate(314.931 13.234)"><path class="c" d="M2617.366,1488.477c.24.31.476.624.693.951C2617.842,1489.1,2617.606,1488.787,2617.366,1488.477Z" transform="translate(-2617.366 -1488.477)"/></g><g class="f" transform="translate(318.097 20.759)"><path class="c" d="M2633.153,1526c.027.195.068.386.087.583C2633.22,1526.385,2633.18,1526.194,2633.153,1526Z" transform="translate(-2633.153 -1525.999)"/></g><g class="f" transform="translate(316.63 15.965)"><path class="c" d="M2625.841,1502.095c.142.289.287.576.412.875C2626.129,1502.671,2625.983,1502.384,2625.841,1502.095Z" transform="translate(-2625.841 -1502.095)"/></g><g class="f" transform="translate(317.765 19.059)"><path class="c" d="M2631.5,1517.522c.061.241.133.478.182.723C2631.631,1518,2631.559,1517.763,2631.5,1517.522Z" transform="translate(-2631.498 -1517.522)"/></g><g class="f" transform="translate(317.274 17.469)"><path class="c" d="M2629.048,1509.6c.1.269.206.534.29.809C2629.254,1510.13,2629.147,1509.865,2629.048,1509.6Z" transform="translate(-2629.048 -1509.596)"/></g><g class="f" transform="translate(103.512 7.02)"><path class="c" d="M1757.108,1488.357a15.919,15.919,0,0,0,5.59-30.828c-.193-.007-.381-.029-.576-.029h-33.549c-3.955,7.54-27.376,28.71-165.274,30.857Z" transform="translate(-1563.299 -1457.5)"/></g><g class="f" transform="translate(62.343 37.964)"><path class="c" d="M1358.046,1611.774c2.388.025,4.738.042,7.07.057C1362.783,1611.816,1360.434,1611.8,1358.046,1611.774Z" transform="translate(-1358.046 -1611.774)"/></g><g class="f" transform="translate(88.086 38.023)"><path class="c" d="M1488.292,1612.07l-1.9.011Z" transform="translate(-1486.391 -1612.07)"/></g><g class="f" transform="translate(71.549 38.033)"><path class="c" d="M1403.941,1612.118q2.638.014,5.229.018Q1406.577,1612.131,1403.941,1612.118Z" transform="translate(-1403.941 -1612.118)"/></g><g class="f" transform="translate(302.912 7.05)"><path class="c" d="M2557.445,1457.646a15.866,15.866,0,0,1,8.6,2.9A15.82,15.82,0,0,0,2557.445,1457.646Z" transform="translate(-2557.445 -1457.646)"/></g><g class="f" transform="translate(311.529 9.963)"><path class="c" d="M2600.4,1472.173q.6.422,1.149.895C2601.186,1472.751,2600.8,1472.454,2600.4,1472.173Z" transform="translate(-2600.405 -1472.173)"/></g><g class="f" transform="translate(312.757 10.93)"><path class="c" d="M2607.531,1477.934c-.32-.329-.655-.641-1-.942C2606.877,1477.292,2607.212,1477.605,2607.531,1477.934Z" transform="translate(-2606.53 -1476.992)"/></g><g class="f" transform="translate(80.02 38.049)"><path class="c" d="M1450.481,1612.2q-2.136.006-4.306.005C1447.62,1612.2,1449.059,1612.2,1450.481,1612.2Z" transform="translate(-1446.175 -1612.2)"/></g></g><g transform="translate(583.249 1094.129)"><g class="l" transform="translate(0 0.472)"><path class="m" d="M1265.294,3284.3c0-5.038-110.172-9.122-246.076-9.122s-246.077,4.084-246.077,9.122c0,2.912,36.815,5.506,94.135,7.176,12.368,3.266,60.324,5.7,117.6,5.7,47.961,0,89.387-1.707,108.854-4.18C1193.206,3291.826,1265.294,3288.375,1265.294,3284.3Z" transform="translate(-773.141 -3275.179)"/></g><g transform="translate(36.11)"><g transform="translate(0 4.513)"><line class="n" x2="420.362"/></g><path class="c" d="M953.176,3277.339c35.031-1.868,70.061-2.844,105.09-3.508s70.061-1.011,105.091-1q52.545-.036,105.09.99c35.03.661,70.06,1.643,105.09,3.522-35.031,1.879-70.06,2.86-105.09,3.522s-70.061,1.013-105.09.99q-52.545.011-105.091-1C1023.237,3280.183,988.207,3279.207,953.176,3277.339Z" transform="translate(-953.176 -3272.826)"/></g></g><g transform="translate(535.606 721.673)"><path class="c" d="M595.127,1486.343a2.12,2.12,0,0,1-1.98-1.364c-2.829-7.416-6.556-12.174-10.693-13.866a23.828,23.828,0,0,1-1.544,4.3,9.891,9.891,0,0,1-6.324,5.431,6.563,6.563,0,0,1-7.462-2.55c-1.069-1.485-1.022-3.519.129-5.58a13.862,13.862,0,0,1,11.627-6.524c.312-9.146-6.048-16.516-7.138-17.708l-.288-.194a15.2,15.2,0,0,1-5.11,7.382c-5.7,4.487-11.44,5.314-16.6,2.391a8.645,8.645,0,0,1-3.84-10.431c1.549-4.388,4.294-7.336,7.94-8.526,3.833-1.253,8.539-.514,14.04,2.192-.338-7.283-2.671-12.755-6.949-16.289-8.642-7.138-22.637-4.334-22.776-4.3a2.12,2.12,0,0,1-.87-4.149c.653-.136,16.094-3.262,26.326,5.169,5.776,4.76,8.652,12.151,8.548,21.974q1.065.666,2.165,1.419a2.148,2.148,0,0,1,.332.281c.452.472,9.108,9.662,8.446,21.446,4.511,1.452,9.843,5.724,14,16.626a2.121,2.121,0,0,1-1.98,2.875Zm-16.889-15.889a9.583,9.583,0,0,0-1.98.388c-3.872,1.181-5.845,4.245-5.661,5.04a2.375,2.375,0,0,0,2.888.868,5.661,5.661,0,0,0,3.587-3.139A19.33,19.33,0,0,0,578.238,1470.455Zm-20.5-27.7a8.268,8.268,0,0,0-2.577.382c-2.38.777-4.149,2.765-5.258,5.908a4.41,4.41,0,0,0,1.932,5.332c3.591,2.034,7.591,1.349,11.889-2.033a10.968,10.968,0,0,0,3.962-6.367C563.828,1443.838,560.469,1442.75,557.736,1442.75Z" transform="translate(-535.606 -1415.876)"/></g><g transform="translate(1046.641 755.419)"><path class="c" d="M3085.585,1659.341a2.12,2.12,0,0,1-1.977-2.882c4.521-11.737,10.281-16.26,15.12-17.755-.733-12.654,8.614-22.513,9.1-23.017a2.11,2.11,0,0,1,.333-.281q1.221-.829,2.4-1.561c0-.067,0-.134,0-.2-.054-10.479,3.062-18.348,9.262-23.389,10.967-8.915,27.42-5.529,28.115-5.38a2.12,2.12,0,0,1-.884,4.146h0c-.151-.033-15.2-3.1-24.572,4.536-4.727,3.852-7.293,9.866-7.642,17.9,5.986-2.965,11.084-3.778,15.213-2.413,3.864,1.276,6.769,4.42,8.4,9.092a9.131,9.131,0,0,1-4.092,11c-5.464,3.07-11.532,2.193-17.554-2.536a16.254,16.254,0,0,1-5.543-8.171q-.262.172-.525.35c-1.066,1.179-8.068,9.326-7.753,19.283a14.727,14.727,0,0,1,12.448,6.971c1.2,2.163,1.246,4.287.13,5.827a6.9,6.9,0,0,1-7.858,2.653,10.464,10.464,0,0,1-6.673-5.772,25.347,25.347,0,0,1-1.675-4.766c-3.731,1.4-8.083,5.366-11.8,15.009A2.118,2.118,0,0,1,3085.585,1659.341Zm18-17.009a20.459,20.459,0,0,0,1.292,3.619,6.238,6.238,0,0,0,3.945,3.472,2.7,2.7,0,0,0,3.312-1.053c.25-.72-1.65-3.951-5.623-5.418A10.341,10.341,0,0,0,3103.587,1642.332Zm11.47-26.206a12.091,12.091,0,0,0,4.372,7.141c4.63,3.637,8.955,4.368,12.858,2.175a4.9,4.9,0,0,0,2.168-5.911c-1.2-3.43-3.126-5.6-5.729-6.464C3125.368,1611.957,3120.7,1613.013,3115.057,1616.125Z" transform="translate(-3083.466 -1584.123)"/></g><g transform="translate(928.298 588.306)"><g transform="translate(30.353)"><path class="c" d="M2647.281,769.334a2.509,2.509,0,0,1-2.4-3.229l4.019-13.363a2.508,2.508,0,0,1,4.8,1.444l-4.019,13.363A2.509,2.509,0,0,1,2647.281,769.334Z" transform="translate(-2644.771 -750.955)"/></g><g transform="translate(18.479 39.485)"><path class="c" d="M2588.081,966.2a2.509,2.509,0,0,1-2.4-3.229L2589.7,949.6a2.507,2.507,0,0,1,4.8,1.444l-4.018,13.364A2.51,2.51,0,0,1,2588.081,966.2Z" transform="translate(-2585.572 -947.815)"/></g><g transform="translate(2.121 13.359)"><g transform="translate(36.317)"><path class="c" d="M2687.592,829.182a2.507,2.507,0,0,1-1.189-4.716l12.291-6.608a2.507,2.507,0,0,1,2.374,4.417l-12.292,6.608A2.5,2.5,0,0,1,2687.592,829.182Z" transform="translate(-2685.083 -817.56)"/></g><g transform="translate(0 19.524)"><path class="c" d="M2506.528,926.522a2.508,2.508,0,0,1-1.189-4.716l12.292-6.608a2.507,2.507,0,0,1,2.374,4.417l-12.292,6.608A2.5,2.5,0,0,1,2506.528,926.522Z" transform="translate(-2504.018 -914.898)"/></g></g><g transform="translate(0 18.479)"><g transform="translate(39.485 11.874)"><path class="c" d="M2706.177,911.316a2.506,2.506,0,0,1-.723-.107l-13.363-4.019a2.507,2.507,0,1,1,1.444-4.8l13.363,4.019a2.507,2.507,0,0,1-.72,4.909Z" transform="translate(-2690.304 -902.282)"/></g><path class="c" d="M2509.316,852.117a2.5,2.5,0,0,1-.722-.107l-13.364-4.019a2.507,2.507,0,1,1,1.444-4.8l13.364,4.019a2.507,2.507,0,0,1-.721,4.908Z" transform="translate(-2493.444 -843.083)"/></g><g transform="translate(13.359 2.122)"><g transform="translate(19.524 36.316)"><path class="c" d="M2666.5,959.9a2.506,2.506,0,0,1-2.21-1.321l-6.608-12.291a2.507,2.507,0,1,1,4.417-2.374l6.608,12.291a2.508,2.508,0,0,1-2.207,3.695Z" transform="translate(-2657.386 -942.592)"/></g><path class="c" d="M2569.165,778.839a2.505,2.505,0,0,1-2.21-1.321l-6.608-12.291a2.507,2.507,0,0,1,4.417-2.374l6.608,12.291a2.508,2.508,0,0,1-2.207,3.695Z" transform="translate(-2560.048 -761.533)"/></g></g><g transform="translate(655.989 547.498)"><g transform="translate(33.512)"><path class="c" d="M1305.386,567.268a2.509,2.509,0,0,1-2.4-3.229l4.437-14.755a2.507,2.507,0,0,1,4.8,1.444l-4.437,14.755A2.51,2.51,0,0,1,1305.386,567.268Z" transform="translate(-1302.877 -547.498)"/></g><g transform="translate(20.402 43.596)"><path class="c" d="M1240.025,784.624a2.51,2.51,0,0,1-2.4-3.229l4.437-14.755a2.508,2.508,0,0,1,4.8,1.444l-4.437,14.755A2.509,2.509,0,0,1,1240.025,784.624Z" transform="translate(-1237.516 -764.854)"/></g><g transform="translate(2.342 14.749)"><g transform="translate(40.097)"><path class="c" d="M1349.9,633.345a2.507,2.507,0,0,1-1.189-4.716l13.57-7.3a2.507,2.507,0,1,1,2.374,4.417l-13.57,7.3A2.5,2.5,0,0,1,1349.9,633.345Z" transform="translate(-1347.386 -621.034)"/></g><g transform="translate(0 21.557)"><path class="c" d="M1149.984,740.821a2.507,2.507,0,0,1-1.189-4.716l13.57-7.3a2.507,2.507,0,1,1,2.374,4.417l-13.57,7.3A2.5,2.5,0,0,1,1149.984,740.821Z" transform="translate(-1147.474 -728.51)"/></g></g><g transform="translate(0 20.402)"><g transform="translate(43.596 13.109)"><path class="c" d="M1370.415,724.029a2.508,2.508,0,0,1-.723-.107l-14.755-4.437a2.507,2.507,0,1,1,1.443-4.8l14.755,4.437a2.507,2.507,0,0,1-.721,4.909Z" transform="translate(-1353.151 -714.577)"/></g><path class="c" d="M1153.061,658.669a2.509,2.509,0,0,1-.723-.107l-14.755-4.437a2.507,2.507,0,1,1,1.444-4.8l14.755,4.437a2.507,2.507,0,0,1-.721,4.909Z" transform="translate(-1135.797 -649.217)"/></g><g transform="translate(14.75 2.342)"><g transform="translate(21.557 40.097)"><path class="c" d="M1326.616,777.67a2.506,2.506,0,0,1-2.21-1.32l-7.3-13.571a2.507,2.507,0,0,1,4.417-2.374l7.3,13.571a2.508,2.508,0,0,1-2.207,3.694Z" transform="translate(-1316.811 -759.084)"/></g><path class="c" d="M1219.14,577.758a2.506,2.506,0,0,1-2.21-1.321l-7.3-13.571a2.507,2.507,0,0,1,4.417-2.374l7.3,13.571a2.508,2.508,0,0,1-2.207,3.695Z" transform="translate(-1209.335 -559.172)"/></g></g><g transform="translate(640.992 1003.394)"><path class="c" d="M1076.87,2820.45s-1.2,14.091-15.842,13.684c0,0,12.67,4.235,9.823,18.874,0,0,7.318-15.655,16.263-14.843C1087.115,2838.165,1075.65,2832.242,1076.87,2820.45Z" transform="translate(-1061.028 -2820.45)"/></g><g transform="translate(997.453 1038.844)"><circle class="c" cx="5.73" cy="5.73" r="5.73" transform="translate(0)"/></g><g transform="translate(956.51 990.353)"><path class="c" d="M2649.267,2755.432s-1.152,13.488-15.165,13.1c0,0,12.128,4.053,9.4,18.067,0,0,7-14.986,15.568-14.208C2659.074,2772.39,2648.1,2766.72,2649.267,2755.432Z" transform="translate(-2634.102 -2755.432)"/></g><g transform="translate(994.443 686.941)"><circle class="c" cx="5.73" cy="5.73" r="5.73" transform="translate(0 0)"/></g><g transform="translate(738.165 651.739)"><path class="o" d="M1545.5,1086.985l7.485,4.339s5-13.148,19.091-15.478l-2.131-8.638S1552.192,1069.527,1545.5,1086.985Z" transform="translate(-1545.502 -1067.208)"/></g><g transform="translate(555.482 871.99)"><path class="p" d="M634.7,2168.45l8.061-3.142s2.932,13.759,16.5,18.218l-3.428,8.21S638.639,2186.726,634.7,2168.45Z" transform="translate(-634.701 -2165.308)"/></g><g transform="translate(1048.767 951.594)"><path class="q" d="M3118.568,2581.453l1.384-7.748s-12.8-.192-19.167-11.513l-6.723,4.506S3101.563,2581.159,3118.568,2581.453Z" transform="translate(-3094.063 -2562.192)"/></g><g transform="translate(632.374 681.87)"><circle class="c" cx="5.73" cy="5.73" r="5.73" transform="translate(0 0)"/></g><g transform="translate(1019.528 729.649)"><path class="b" d="M2969.8,1458.073l-7.486-2.43s-1.939,12.65-14.024,17.413l3.545,7.276S2967.181,1474.878,2969.8,1458.073Z" transform="translate(-2948.286 -1455.643)"/></g><g transform="translate(593.711 944.737)"><path class="b" d="M843.618,2528l3.846,6.867s-12.027,4.375-14.336,17.157l-7.829-2.055S827.648,2533.852,843.618,2528Z" transform="translate(-825.3 -2528.002)"/></g><g transform="translate(854.339 629.617)"><path class="p" d="M2139.854,956.918l-7.866.257s2.471,12.557-7.278,21.14l5.805,5.64S2143.1,973.613,2139.854,956.918Z" transform="translate(-2124.709 -956.918)"/></g><g transform="translate(893.853 876.5)"><path class="q" d="M2346.22,2207.055l1.384-7.748s-12.8-.193-19.166-11.513l-6.723,4.507S2329.214,2206.761,2346.22,2207.055Z" transform="translate(-2321.714 -2187.794)"/></g><g transform="translate(793.968 567.167)"><path class="q" d="M1848.221,664.82l1.384-7.748s-12.8-.192-19.166-11.513l-6.723,4.506S1831.216,664.526,1848.221,664.82Z" transform="translate(-1823.716 -645.559)"/></g></g></svg>