<svg xmlns="http://www.w3.org/2000/svg" xmlns:xlink="http://www.w3.org/1999/xlink" width="346.353" height="341.501" viewBox="0 0 346.353 341.501"><defs><style>.a{fill:none;}.b{fill:#ffca28;}.c,.m{fill:#102770;}.d,.m{opacity:0.6;}.e{fill:#fff;}.f{opacity:0.2;}.g{fill:#dc7633;}.h{fill:#f9b32f;}.i{opacity:0.1;}.j{clip-path:url(#a);}.k{opacity:0.5;}.l{opacity:0.3;}.n{fill:#ae7c5b;}.o{fill:#8bc34a;}.p{fill:#19b5fe;}.q{fill:#ff5722;}</style><clipPath id="a"><path class="a" d="M1455.328,1457.5H1314.481a9.559,9.559,0,1,0,0,19.118h140.847a9.559,9.559,0,1,0,0-19.118Z" transform="translate(-1304.922 -1457.5)"/></clipPath></defs><g transform="translate(-535.606 -547.498)"><g transform="translate(597.183 652.813)"><g transform="translate(163.007 35.309)"><path class="b" d="M2433.463,1733.359h8.672a32.191,32.191,0,0,1,15.976,4.128c7.426,4.24,15.728,12.653,15.728,29.079v19.527s.849,42.025-42.025,42.025h-12.753l10.045-20.193s16.722,3.731,24.176-12.347a21.049,21.049,0,0,0,1.878-8.861v-19.039a20.973,20.973,0,0,0-2.122-9.389c-1.7-3.4-4.67-7-9.764-7.853h-9.812Z" transform="translate(-2416.954 -1731.253)"/><path class="c" d="M2416.417,1814.831h-12.753a2.106,2.106,0,0,1-1.886-3.044l10.045-20.193a2.107,2.107,0,0,1,2.344-1.118c.614.134,15.179,3.119,21.807-11.178a18.81,18.81,0,0,0,1.683-7.975v-19.039a18.968,18.968,0,0,0-1.9-8.447c-1.9-3.81-4.616-6.059-8.061-6.688h-9.63a2.107,2.107,0,0,1-2.106-2.106v-17.077a2.106,2.106,0,0,1,2.106-2.106h8.672a34.34,34.34,0,0,1,17.02,4.405c7.66,4.373,16.791,13.286,16.791,30.909V1770.7c.015.746.244,19.422-12.432,32.356C2440.46,1810.869,2429.795,1814.831,2416.417,1814.831Zm-9.353-4.213h9.353c12.2,0,21.856-3.536,28.691-10.511,11.45-11.683,11.231-29.189,11.228-29.365v-19.569c0-15.6-7.976-23.43-14.667-27.25a30.123,30.123,0,0,0-14.931-3.851h-6.566v12.864h7.706a2.138,2.138,0,0,1,.346.028c4.858.81,8.766,3.918,11.3,8.989a23.2,23.2,0,0,1,2.345,10.331v19.039a23,23,0,0,1-2.073,9.747c-6.633,14.306-20.16,14.258-24.879,13.761Z" transform="translate(-2401.558 -1715.859)"/><g transform="translate(12.407 4.213)"><g class="d" transform="translate(0 71.177)"><path class="e" d="M2504.641,2347.727l.954-1.917c3.11.328,10.043.459,16.309-3.583C2515.913,2347.405,2508.682,2347.93,2504.641,2347.727Z" transform="translate(-2504.641 -2342.228)"/></g><g class="d" transform="translate(6.208)"><path class="e" d="M2578.722,1832.726c11.437-11.645,11.256-29.217,11.252-29.433v-19.527c0-15.6-7.976-23.43-14.666-27.25a30.125,30.125,0,0,0-14.931-3.851h-4.158v-1.805h6.566a30.123,30.123,0,0,1,14.931,3.851c6.691,3.82,14.666,11.648,14.666,27.25v19.527c0,.216.185,17.788-11.252,29.433a31.935,31.935,0,0,1-4.822,4.014A32.066,32.066,0,0,0,2578.722,1832.726Z" transform="translate(-2556.218 -1750.859)"/></g></g><g class="f" transform="translate(20.017 19.183)"><path class="c" d="M2582.846,1920.38a22.654,22.654,0,0,0,1.725-8.861V1892.48a22.533,22.533,0,0,0-1.949-9.389c-1.559-3.4-4.288-7-8.967-7.853h6.66c4.679.849,7.407,4.457,8.967,7.853a22.529,22.529,0,0,1,1.949,9.389v19.039a22.654,22.654,0,0,1-1.725,8.861c-6.067,14.249-18.817,12.94-21.64,12.458C2572.8,1932.047,2579.1,1929.182,2582.846,1920.38Z" transform="translate(-2567.866 -1875.238)"/></g><g class="f" transform="translate(17.334 2.106)"><path class="c" d="M2545.575,1750.435v-17.076h9.611l-1.934,17.076Z" transform="translate(-2545.575 -1733.359)"/></g><g class="f" transform="translate(2.107 48.445)"><path class="c" d="M2473.838,2124.761v-6.4c-.037,3.875-1.341,37.242-35.122,41.252a3.347,3.347,0,0,1-3.421-4.794l3.959-8.027c-5.145.478-7.55-.2-7.55-.2l-8.406,13.425h-.871l-3.367,6.768h12.752C2474.687,2166.786,2473.838,2124.761,2473.838,2124.761Z" transform="translate(-2419.06 -2118.366)"/></g></g><g transform="translate(0 35.309)"><path class="b" d="M1105.1,1733.359h-8.672a32.191,32.191,0,0,0-15.976,4.128c-7.426,4.24-15.728,12.653-15.728,29.079v19.527s-.849,42.025,42.025,42.025H1119.5l-10.045-20.193s-16.722,3.731-24.176-12.347a21.048,21.048,0,0,1-1.879-8.861v-19.039a20.972,20.972,0,0,1,2.122-9.389c1.7-3.4,4.669-7,9.764-7.853h9.812Z" transform="translate(-1062.619 -1731.253)"/><path class="c" d="M1104.108,1814.831h-12.752c-13.378,0-24.043-3.962-31.7-11.776-12.675-12.934-12.446-31.61-12.43-32.4v-19.484c0-17.623,9.13-26.536,16.79-30.909a34.346,34.346,0,0,1,17.02-4.405h8.672a2.106,2.106,0,0,1,2.106,2.106v17.077a2.107,2.107,0,0,1-2.106,2.106h-9.63c-3.445.629-6.157,2.879-8.061,6.688a18.966,18.966,0,0,0-1.9,8.447v19.039a18.813,18.813,0,0,0,1.683,7.975c6.628,14.3,21.2,11.311,21.812,11.177a2.112,2.112,0,0,1,2.339,1.119l10.045,20.193a2.106,2.106,0,0,1-1.886,3.044Zm-23.074-94.759a30.129,30.129,0,0,0-14.932,3.851c-6.69,3.82-14.666,11.648-14.666,27.25V1770.7c0,.216-.185,17.788,11.252,29.433,6.833,6.958,16.479,10.486,28.667,10.486h9.352l-7.853-15.787c-4.721.5-18.245.546-24.879-13.761a22.994,22.994,0,0,1-2.074-9.747v-19.039a23.2,23.2,0,0,1,2.345-10.331c2.535-5.071,6.443-8.179,11.3-8.989a2.137,2.137,0,0,1,.346-.028h7.706v-12.864Z" transform="translate(-1047.222 -1715.859)"/><g transform="translate(4.214 4.213)"><g class="d" transform="translate(25.109 71.177)"><path class="e" d="M1308.113,2347.727l-.953-1.917c-3.11.328-10.043.459-16.309-3.583C1296.842,2347.405,1304.073,2347.93,1308.113,2347.727Z" transform="translate(-1290.851 -2342.228)"/></g><g class="d"><path class="e" d="M1095.892,1832.726c-11.437-11.645-11.256-29.217-11.252-29.433v-19.527c0-15.6,7.976-23.43,14.666-27.25a30.125,30.125,0,0,1,14.931-3.851h4.159v-1.805h-6.566a30.123,30.123,0,0,0-14.932,3.851c-6.691,3.82-14.666,11.648-14.666,27.25v19.527c0,.216-.185,17.788,11.252,29.433a31.945,31.945,0,0,0,4.822,4.014A32.015,32.015,0,0,1,1095.892,1832.726Z" transform="translate(-1082.232 -1750.859)"/></g></g><g class="f" transform="translate(15.61 19.183)"><path class="c" d="M1185.3,1920.38a22.652,22.652,0,0,1-1.725-8.861V1892.48a22.531,22.531,0,0,1,1.949-9.389c1.559-3.4,4.288-7,8.967-7.853h-6.66c-4.678.849-7.407,4.457-8.967,7.853a22.532,22.532,0,0,0-1.949,9.389v19.039a22.654,22.654,0,0,0,1.725,8.861c6.067,14.249,18.817,12.94,21.64,12.458C1195.35,1932.047,1189.051,1929.182,1185.3,1920.38Z" transform="translate(-1176.918 -1875.238)"/></g><g class="f" transform="translate(32.047 2.106)"><path class="c" d="M1323.1,1750.435v-17.076h-9.611l1.934,17.076Z" transform="translate(-1313.486 -1733.359)"/></g><g class="f" transform="translate(2.107 48.445)"><path class="c" d="M1064.727,2124.761v-6.4c.037,3.875,1.341,37.242,35.122,41.252a3.347,3.347,0,0,0,3.421-4.794l-3.959-8.027c5.145.478,7.55-.2,7.55-.2l8.406,13.425h.871l3.367,6.768h-12.753C1063.878,2166.786,1064.727,2124.761,1064.727,2124.761Z" transform="translate(-1064.726 -2118.366)"/></g></g><g transform="translate(90.519 147.744)"><path class="b" d="M1853.544,2696.026H1816.8l7.5-28.5h21.749Z" transform="translate(-1814.69 -2665.421)"/><path class="c" d="M1838.152,2682.74H1801.4a2.107,2.107,0,0,1-2.037-2.643l7.5-28.5a2.106,2.106,0,0,1,2.037-1.57h21.749a2.106,2.106,0,0,1,2.037,1.57l7.5,28.5a2.107,2.107,0,0,1-2.037,2.643Zm-34.016-4.213h31.284l-6.391-24.286h-18.5Z" transform="translate(-1799.297 -2650.029)"/></g><g class="d" transform="translate(95.357 151.957)"><path class="e" d="M1845.888,2685.029l-6.391,24.286h3.009l6.391-24.286Z" transform="translate(-1839.497 -2685.029)"/></g><g transform="translate(77.913 176.243)"><path class="b" d="M13.5,0H48.462a13.5,13.5,0,0,1,13.5,13.5v0a0,0,0,0,1,0,0H0a0,0,0,0,1,0,0v0A13.5,13.5,0,0,1,13.5,0Z" transform="translate(2.106 2.106)"/><path class="c" d="M1758.625,2904.52h-61.961a2.106,2.106,0,0,1-2.106-2.106v-4.09a11.528,11.528,0,0,1,11.515-11.515h43.144a11.528,11.528,0,0,1,11.515,11.515v4.09A2.106,2.106,0,0,1,1758.625,2904.52Zm-59.855-4.212h57.749v-1.984a7.311,7.311,0,0,0-7.3-7.3h-43.144a7.311,7.311,0,0,0-7.3,7.3Z" transform="translate(-1694.557 -2886.808)"/></g><g class="d" transform="translate(82.125 180.456)"><path class="e" d="M1732.565,2930.318a7.311,7.311,0,0,1,7.3-7.3h43.144a7.253,7.253,0,0,1,1.142.1,7.255,7.255,0,0,0-4.151-1.3h-43.144a7.311,7.311,0,0,0-7.3,7.3v1.984h3.009Z" transform="translate(-1729.556 -2921.812)"/></g><g transform="translate(49.083 189.742)"><path class="g" d="M33,0H86.622a33,33,0,0,1,33,33v0a0,0,0,0,1,0,0H0a0,0,0,0,1,0,0v0A33,33,0,0,1,33,0Z" transform="translate(2.106 2.106)"/><path class="c" d="M1576.753,3036.18h-119.62a2.107,2.107,0,0,1-2.106-2.106v-12.186a22.945,22.945,0,0,1,22.919-22.919h78a22.945,22.945,0,0,1,22.919,22.919v12.186A2.107,2.107,0,0,1,1576.753,3036.18Zm-117.514-4.212h115.408v-10.08a18.727,18.727,0,0,0-18.706-18.706h-78a18.727,18.727,0,0,0-18.706,18.706Z" transform="translate(-1455.026 -2998.969)"/></g><g class="d" transform="translate(53.296 193.955)"><path class="e" d="M1493.638,3054.481a18.728,18.728,0,0,1,18.706-18.706h77.995a18.612,18.612,0,0,1,6.466,1.153,18.588,18.588,0,0,0-10.076-2.958h-78a18.728,18.728,0,0,0-18.706,18.706v10.08h3.611Z" transform="translate(-1490.027 -3033.97)"/></g><g transform="translate(39.383 0.864)"><path class="b" d="M1461.828,1447.18h-.765l-69.128.1v81.64a85.709,85.709,0,0,0,10.606,41.792c9.4,16.846,26.794,34.3,58.521,34.581v.013c.129,0,.253-.006.382-.006s.253.006.382.006v-.013c31.727-.279,49.122-17.735,58.521-34.581a85.708,85.708,0,0,0,10.606-41.792v-81.64Z" transform="translate(-1389.829 -1445.073)"/><path class="c" d="M1446.434,1592.021c-.086,0-.17,0-.253,0l-.139,0-.12,0a3.5,3.5,0,0,1-.509-.012c-33.439-.385-51.141-19.592-60.1-35.658a87.991,87.991,0,0,1-10.873-42.818v-81.64a2.106,2.106,0,0,1,2.1-2.106l69.893-.1h.006l69.127.1a2.106,2.106,0,0,1,2.1,2.106v81.64a87.99,87.99,0,0,1-10.873,42.818c-8.965,16.068-26.663,35.276-60.106,35.659A2.132,2.132,0,0,1,1446.434,1592.021Zm-.392-4.219.192,0c.059-.006.12-.009.181-.009,25.346-.223,44.422-11.495,56.7-33.5a83.761,83.761,0,0,0,10.339-40.766v-79.537l-67.024-.1h-.766l-67.018.1v79.537a83.77,83.77,0,0,0,10.339,40.766c12.278,22.006,31.355,33.278,56.7,33.5.061,0,.122,0,.181.009Z" transform="translate(-1374.435 -1429.679)"/></g><g class="d" transform="translate(43.596 5.077)"><path class="e" d="M1423.386,1585.685a83.766,83.766,0,0,1-10.339-40.766v-79.537l67.018-.1,64.179.095v-.6l-67.79-.1-67.018.1v79.537a83.767,83.767,0,0,0,10.339,40.766c10.548,18.906,26.119,29.881,46.368,32.741C1447.646,1614.217,1433.3,1603.452,1423.386,1585.685Z" transform="translate(-1409.436 -1464.68)"/></g><g class="f" transform="translate(54.022 38.624)"><ellipse class="e" cx="14.116" cy="8.966" rx="14.116" ry="8.966" transform="translate(0 28.134) rotate(-85.229)"/></g><g class="f" transform="translate(43.596 5.077)"><path class="c" d="M1461.792,1617.07c.283-.035.559-.077.84-.114a77.24,77.24,0,0,0,12.038,1.026c.062,0,.123,0,.184.01l.17,0,.19,0q.091-.009.184-.01c25.345-.223,44.422-11.494,56.7-33.5a83.764,83.764,0,0,0,10.34-40.766v-78.938l-65.984-.1-67.018.1v26.353l.456.341,95.122,3.775a29.394,29.394,0,0,1,28.183,31.35C1530.877,1560.366,1516.42,1610.4,1461.792,1617.07Z" transform="translate(-1409.436 -1464.68)"/></g><g transform="translate(26.804 0)"><rect class="b" width="164.178" height="23.331" rx="11.665" transform="translate(2.106 2.106)"/><path class="c" d="M1424.542,1450.042H1283.694a13.772,13.772,0,0,1,0-27.543h140.848a13.772,13.772,0,0,1,0,27.543Zm-140.848-23.331a9.559,9.559,0,0,0,0,19.118h140.848a9.559,9.559,0,0,0,0-19.118Z" transform="translate(-1269.923 -1422.499)"/></g><g class="d" transform="translate(31.016 4.213)"><path class="e" d="M1307.931,1468.864a9.569,9.569,0,0,1,9.559-9.559h140.847a9.493,9.493,0,0,1,3.316.6,9.51,9.51,0,0,0-6.325-2.41H1314.481a9.552,9.552,0,0,0-3.315,18.513A9.529,9.529,0,0,1,1307.931,1468.864Z" transform="translate(-1304.922 -1457.5)"/></g><g class="f" transform="translate(91.626 159.847)"><path class="c" d="M1813.082,2755.254a70.684,70.684,0,0,0,14.4,1.571,4.243,4.243,0,0,1,1.422,8.242c-3.972,1.412-9.832,2.356-18.456,2.215l-1.952,2.44h38.548l-4.678-19.141s-18.943,4.737-28.6.228Z" transform="translate(-1808.498 -2750.582)"/></g><g class="f" transform="translate(80.16 178.39)"><path class="c" d="M1752.775,2905.24s.952,11.47-39.548,10.006v2.2h63.285l-1.8-6.268S1773.048,2902.31,1752.775,2905.24Z" transform="translate(-1713.227 -2904.646)"/></g><g class="f" transform="translate(51.371 191.415)"><path class="c" d="M1542.348,3014.345s4.879,28.3-68.313,28.3l.488,3.171h119.791v-15.126S1587.483,3006.782,1542.348,3014.345Z" transform="translate(-1474.035 -3012.866)"/></g><g transform="translate(77.168 48.816)"><g transform="translate(1.809 1.805)"><path class="h" d="M1751.816,1904.523a5.425,5.425,0,0,1-3.2-1.062l-12.095-8.786a1.858,1.858,0,0,0-2.186,0l-12.094,8.787a5.433,5.433,0,0,1-3.2,1.061,5.549,5.549,0,0,1-4.466-2.3,5.384,5.384,0,0,1-.749-4.88l4.62-14.218a1.854,1.854,0,0,0-.676-2.079l-12.094-8.787a5.47,5.47,0,0,1,3.216-9.9h14.949a1.854,1.854,0,0,0,1.768-1.285l4.62-14.217a5.471,5.471,0,0,1,10.406,0l4.619,14.218a1.855,1.855,0,0,0,1.769,1.285h14.949a5.471,5.471,0,0,1,3.216,9.9l-12.095,8.787a1.855,1.855,0,0,0-.675,2.079l4.619,14.218a5.383,5.383,0,0,1-.749,4.879A5.548,5.548,0,0,1,1751.816,1904.523Z" transform="translate(-1703.403 -1843.083)"/></g><path class="c" d="M1722.2,1831.694a3.6,3.6,0,0,1,3.486,2.532l4.619,14.218a3.665,3.665,0,0,0,3.486,2.532h14.949a3.665,3.665,0,0,1,2.155,6.63l-12.095,8.787a3.665,3.665,0,0,0-1.331,4.1l4.619,14.218a3.677,3.677,0,0,1-3.5,4.814,3.611,3.611,0,0,1-2.141-.717l-12.095-8.787a3.665,3.665,0,0,0-4.308,0l-12.094,8.787a3.611,3.611,0,0,1-2.141.717,3.677,3.677,0,0,1-3.5-4.814l4.62-14.218a3.666,3.666,0,0,0-1.332-4.1l-12.094-8.787a3.665,3.665,0,0,1,2.154-6.63h14.949a3.665,3.665,0,0,0,3.486-2.532l4.62-14.218a3.6,3.6,0,0,1,3.486-2.532m0-3.611a7.167,7.167,0,0,0-6.92,5.028l-4.619,14.217a.055.055,0,0,1-.052.037h-14.949a7.276,7.276,0,0,0-4.277,13.162l12.094,8.787a.055.055,0,0,1,.019.062l-4.619,14.217a7.17,7.17,0,0,0,1.005,6.5,7.359,7.359,0,0,0,5.927,3.042,7.221,7.221,0,0,0,4.264-1.406l12.094-8.787a.053.053,0,0,1,.032-.01.049.049,0,0,1,.031.01l12.1,8.787a7.219,7.219,0,0,0,4.264,1.406,7.36,7.36,0,0,0,5.926-3.042,7.17,7.17,0,0,0,1.006-6.5l-4.619-14.218a.056.056,0,0,1,.02-.061l12.094-8.787a7.276,7.276,0,0,0-4.277-13.162H1733.8a.055.055,0,0,1-.052-.038l-4.619-14.217a7.167,7.167,0,0,0-6.919-5.028Z" transform="translate(-1688.373 -1828.083)"/><g class="d" transform="translate(42.907 21.886)"><path class="e" d="M2044.978,2010.279a3.665,3.665,0,0,0,3.486,2.532h14.949a3.568,3.568,0,0,1,2.475.957,3.6,3.6,0,0,0-3.562-2.842h-14.949a3.658,3.658,0,0,1-2.515-1.008Z" transform="translate(-2044.861 -2009.919)"/></g><g class="d" transform="translate(13.752 40.473)"><path class="e" d="M1803.912,2182.386l4.62-14.218a3.658,3.658,0,0,0-1.008-3.82,3.647,3.647,0,0,1-.079,1.936l-4.62,14.218a3.575,3.575,0,0,0,.984,3.8A3.637,3.637,0,0,1,1803.912,2182.386Z" transform="translate(-1802.635 -2164.348)"/></g><g class="d" transform="translate(3.627 3.611)"><path class="e" d="M1723.256,1879.25H1738.2a3.665,3.665,0,0,0,3.486-2.532l4.619-14.218a3.677,3.677,0,0,1,5.989-1.565l-.1-.32a3.665,3.665,0,0,0-6.971,0l-4.62,14.218a3.665,3.665,0,0,1-3.486,2.532h-14.949a3.661,3.661,0,0,0-2.5,6.337A3.664,3.664,0,0,1,1723.256,1879.25Z" transform="translate(-1718.504 -1858.083)"/></g><g class="f" transform="translate(34.088 4.769)"><path class="c" d="M1971.591,1868.308v29.149l8.653-12.484-6.016-17.269Z" transform="translate(-1971.591 -1867.704)"/></g><g class="f" transform="translate(15.91 34.521)"><path class="c" d="M1838.739,2114.9l-18.178,26.516,2.06,1.791,16.307-10.871Z" transform="translate(-1820.562 -2114.903)"/></g><g class="f" transform="translate(3.807 28.515)"><path class="c" d="M1720,2065l30.281,6.006-15.016,5.875Z" transform="translate(-1720 -2065)"/></g><g class="f" transform="translate(34.088 34.521)"><path class="c" d="M1971.591,2114.9l20.27,27.092-.6-7.221-5.379-13.584Z" transform="translate(-1971.591 -2114.903)"/></g><g class="i" transform="translate(34.088 28.234)"><path class="c" d="M1971.591,2068.955l28.577-6.287-14.289,12.574Z" transform="translate(-1971.591 -2062.668)"/></g></g><g transform="translate(31.016 4.213)"><g class="j"><g class="k" transform="translate(13.567 -20.086)"><rect class="e" width="20.821" height="61.398" transform="matrix(0.754, 0.656, -0.656, 0.754, 40.306, 0)"/></g><g class="k" transform="translate(55.335 -18.895)"><rect class="e" width="9.218" height="61.398" transform="matrix(0.754, 0.656, -0.656, 0.754, 40.306, 0)"/></g></g></g><g class="f" transform="translate(188.359 7.214)"><path class="c" d="M2612.2,1482.434c.176.186.348.377.509.577C2612.55,1482.811,2612.378,1482.62,2612.2,1482.434Z" transform="translate(-2612.202 -1482.434)"/></g><g class="f" transform="translate(189.531 8.732)"><path class="c" d="M2621.933,1495.049c.114.182.227.364.328.553C2622.16,1495.412,2622.046,1495.231,2621.933,1495.049Z" transform="translate(-2621.933 -1495.049)"/></g><g class="f" transform="translate(188.981 7.941)"><path class="c" d="M2617.366,1488.477c.144.186.285.374.416.571C2617.651,1488.851,2617.51,1488.663,2617.366,1488.477Z" transform="translate(-2617.366 -1488.477)"/></g><g class="f" transform="translate(190.881 12.457)"><path class="c" d="M2633.153,1526c.016.117.041.231.052.35C2633.193,1526.23,2633.169,1526.116,2633.153,1526Z" transform="translate(-2633.153 -1525.999)"/></g><g class="f" transform="translate(190.001 9.58)"><path class="c" d="M2625.841,1502.095c.085.173.172.346.247.525C2626.014,1502.44,2625.926,1502.269,2625.841,1502.095Z" transform="translate(-2625.841 -1502.095)"/></g><g class="f" transform="translate(190.682 11.437)"><path class="c" d="M2631.5,1517.522c.037.145.08.287.109.434C2631.578,1517.809,2631.535,1517.667,2631.5,1517.522Z" transform="translate(-2631.498 -1517.522)"/></g><g class="f" transform="translate(190.387 10.483)"><path class="c" d="M2629.048,1509.6c.06.161.123.321.174.486C2629.171,1509.916,2629.107,1509.757,2629.048,1509.6Z" transform="translate(-2629.048 -1509.596)"/></g><g class="f" transform="translate(62.114 4.213)"><path class="c" d="M1679.6,1476.016a9.552,9.552,0,0,0,3.354-18.5c-.116,0-.229-.018-.345-.018h-20.132c-2.373,4.524-16.427,17.228-99.176,18.516Z" transform="translate(-1563.299 -1457.5)"/></g><g class="f" transform="translate(37.41 22.781)"><path class="c" d="M1358.046,1611.774c1.433.015,2.843.026,4.242.034C1360.888,1611.8,1359.479,1611.789,1358.046,1611.774Z" transform="translate(-1358.046 -1611.774)"/></g><g class="f" transform="translate(52.858 22.817)"><path class="c" d="M1487.532,1612.07l-1.141.007Z" transform="translate(-1486.391 -1612.07)"/></g><g class="f" transform="translate(42.934 22.822)"><path class="c" d="M1403.941,1612.118q1.583.008,3.137.011Q1405.523,1612.126,1403.941,1612.118Z" transform="translate(-1403.941 -1612.118)"/></g><g class="f" transform="translate(181.769 4.23)"><path class="c" d="M2557.445,1457.646a9.521,9.521,0,0,1,5.158,1.739A9.494,9.494,0,0,0,2557.445,1457.646Z" transform="translate(-2557.445 -1457.646)"/></g><g class="f" transform="translate(186.94 5.979)"><path class="c" d="M2600.4,1472.173q.357.253.689.537C2600.873,1472.52,2600.643,1472.342,2600.4,1472.173Z" transform="translate(-2600.405 -1472.173)"/></g><g class="f" transform="translate(187.677 6.559)"><path class="c" d="M2607.131,1477.557c-.192-.2-.393-.385-.6-.565C2606.738,1477.172,2606.939,1477.36,2607.131,1477.557Z" transform="translate(-2606.53 -1476.992)"/></g><g class="f" transform="translate(48.018 22.832)"><path class="c" d="M1448.759,1612.2q-1.282,0-2.584,0C1447.042,1612.2,1447.906,1612.2,1448.759,1612.2Z" transform="translate(-1446.175 -1612.2)"/></g></g><g transform="translate(564.195 875.516)"><g class="l" transform="translate(0 0.283)"><path class="m" d="M1068.468,3280.653c0-3.023-66.111-5.474-147.664-5.474s-147.664,2.451-147.664,5.474c0,1.748,22.092,3.3,56.488,4.306,7.422,1.959,36.2,3.42,70.567,3.42,28.78,0,53.639-1.024,65.32-2.508C1025.21,3285.168,1068.468,3283.1,1068.468,3280.653Z" transform="translate(-773.141 -3275.179)"/></g><g transform="translate(21.669)"><g transform="translate(0 2.708)"><line class="n" x2="252.247"/></g><path class="c" d="M953.176,3275.534c21.021-1.121,42.042-1.707,63.062-2.1s42.041-.607,63.062-.6q31.531-.022,63.062.594c21.02.4,42.041.986,63.062,2.114-21.021,1.127-42.041,1.716-63.062,2.113s-42.041.608-63.062.594q-31.531.007-63.062-.6C995.218,3277.241,974.2,3276.655,953.176,3275.534Z" transform="translate(-953.176 -3272.826)"/></g></g><g transform="translate(535.606 652.015)"><path class="c" d="M571.323,1458.162a1.272,1.272,0,0,1-1.188-.819c-1.7-4.45-3.934-7.305-6.416-8.321a14.3,14.3,0,0,1-.927,2.581,5.935,5.935,0,0,1-3.795,3.259,3.938,3.938,0,0,1-4.478-1.53,3.055,3.055,0,0,1,.078-3.349,8.318,8.318,0,0,1,6.977-3.915c.187-5.488-3.629-9.91-4.283-10.626l-.173-.117a9.121,9.121,0,0,1-3.067,4.43c-3.42,2.692-6.865,3.188-9.962,1.435a5.188,5.188,0,0,1-2.3-6.26,7.708,7.708,0,0,1,4.764-5.116c2.3-.752,5.124-.308,8.425,1.315-.2-4.37-1.6-7.654-4.17-9.775-5.186-4.283-13.584-2.6-13.667-2.583a1.272,1.272,0,0,1-.522-2.49c.392-.082,9.658-1.957,15.8,3.1,3.466,2.856,5.192,7.292,5.129,13.186q.639.4,1.3.852a1.291,1.291,0,0,1,.2.169c.271.283,5.466,5.8,5.068,12.869,2.707.871,5.906,3.435,8.4,9.977a1.273,1.273,0,0,1-1.188,1.726Zm-10.135-9.534a5.748,5.748,0,0,0-1.188.233c-2.324.709-3.507,2.547-3.4,3.025a1.425,1.425,0,0,0,1.733.521,3.4,3.4,0,0,0,2.153-1.884A11.591,11.591,0,0,0,561.188,1448.627ZM548.885,1432a4.96,4.96,0,0,0-1.546.229,5.212,5.212,0,0,0-3.155,3.545,2.646,2.646,0,0,0,1.16,3.2c2.155,1.221,4.555.81,7.134-1.22a6.581,6.581,0,0,0,2.378-3.821A12.982,12.982,0,0,0,548.885,1432Z" transform="translate(-535.606 -1415.876)"/></g><g transform="translate(842.264 672.265)"><path class="c" d="M3084.738,1629.259a1.272,1.272,0,0,1-1.187-1.729c2.713-7.043,6.17-9.757,9.073-10.655-.44-7.594,5.169-13.509,5.461-13.812a1.269,1.269,0,0,1,.2-.168q.732-.5,1.442-.937c0-.04,0-.08,0-.12-.032-6.288,1.838-11.01,5.558-14.035,6.581-5.35,16.454-3.318,16.871-3.229a1.272,1.272,0,0,1-.53,2.488h0c-.091-.02-9.119-1.863-14.745,2.722-2.837,2.312-4.376,5.92-4.586,10.739,3.592-1.779,6.651-2.267,9.129-1.448a8.192,8.192,0,0,1,5.041,5.456,5.479,5.479,0,0,1-2.456,6.6c-3.279,1.842-6.92,1.316-10.534-1.522a9.755,9.755,0,0,1-3.326-4.9q-.157.1-.315.21c-.64.707-4.841,5.6-4.652,11.571a8.837,8.837,0,0,1,7.47,4.183,3.193,3.193,0,0,1,.078,3.5,4.141,4.141,0,0,1-4.715,1.592,6.28,6.28,0,0,1-4-3.464,15.225,15.225,0,0,1-1-2.86c-2.239.841-4.85,3.22-7.08,9.006A1.271,1.271,0,0,1,3084.738,1629.259Zm10.8-10.207a12.278,12.278,0,0,0,.776,2.171,3.744,3.744,0,0,0,2.367,2.083,1.618,1.618,0,0,0,1.988-.632c.15-.432-.99-2.371-3.374-3.251A6.206,6.206,0,0,0,3095.54,1619.052Zm6.883-15.726a7.256,7.256,0,0,0,2.624,4.285c2.778,2.183,5.374,2.621,7.715,1.3a2.937,2.937,0,0,0,1.3-3.547,5.69,5.69,0,0,0-3.437-3.879C3108.61,1600.826,3105.81,1601.459,3102.423,1603.327Z" transform="translate(-3083.466 -1584.123)"/></g><g transform="translate(771.249 571.986)"><g transform="translate(18.214)"><path class="c" d="M2646.277,761.984a1.505,1.505,0,0,1-1.442-1.938l2.411-8.019a1.5,1.5,0,0,1,2.882.866l-2.412,8.019A1.505,1.505,0,0,1,2646.277,761.984Z" transform="translate(-2644.771 -750.955)"/></g><g transform="translate(11.088 23.694)"><path class="c" d="M2587.078,958.845a1.505,1.505,0,0,1-1.441-1.938l2.411-8.019a1.5,1.5,0,0,1,2.882.866l-2.411,8.019A1.506,1.506,0,0,1,2587.078,958.845Z" transform="translate(-2585.572 -947.815)"/></g><g transform="translate(1.273 8.016)"><g transform="translate(21.793)"><path class="c" d="M2686.588,824.534a1.5,1.5,0,0,1-.713-2.83l7.375-3.965a1.5,1.5,0,0,1,1.425,2.65l-7.376,3.965A1.5,1.5,0,0,1,2686.588,824.534Z" transform="translate(-2685.083 -817.56)"/></g><g transform="translate(0 11.716)"><path class="c" d="M2505.524,921.873a1.5,1.5,0,0,1-.714-2.83l7.376-3.965a1.5,1.5,0,0,1,1.425,2.65l-7.376,3.965A1.5,1.5,0,0,1,2505.524,921.873Z" transform="translate(-2504.018 -914.898)"/></g></g><g transform="translate(0 11.088)"><g transform="translate(23.694 7.125)"><path class="c" d="M2699.829,907.7a1.5,1.5,0,0,1-.434-.064l-8.019-2.411a1.5,1.5,0,1,1,.866-2.881l8.019,2.411a1.5,1.5,0,0,1-.433,2.946Z" transform="translate(-2690.304 -902.282)"/></g><path class="c" d="M2502.968,848.5a1.5,1.5,0,0,1-.433-.064l-8.019-2.412a1.5,1.5,0,1,1,.866-2.881l8.019,2.412a1.5,1.5,0,0,1-.433,2.945Z" transform="translate(-2493.444 -843.083)"/></g><g transform="translate(8.016 1.273)"><g transform="translate(11.716 21.792)"><path class="c" d="M2662.857,952.977a1.5,1.5,0,0,1-1.326-.792l-3.965-7.376a1.5,1.5,0,1,1,2.65-1.425l3.965,7.375a1.505,1.505,0,0,1-1.324,2.217Z" transform="translate(-2657.386 -942.592)"/></g><path class="c" d="M2565.519,771.917a1.5,1.5,0,0,1-1.326-.792l-3.965-7.376a1.5,1.5,0,0,1,2.65-1.424l3.965,7.375a1.5,1.5,0,0,1-1.324,2.217Z" transform="translate(-2560.048 -761.533)"/></g></g><g transform="translate(607.844 547.498)"><g transform="translate(20.11)"><path class="c" d="M1304.382,559.362a1.506,1.506,0,0,1-1.442-1.938l2.662-8.854a1.5,1.5,0,0,1,2.882.866l-2.662,8.854A1.506,1.506,0,0,1,1304.382,559.362Z" transform="translate(-1302.877 -547.498)"/></g><g transform="translate(12.243 26.161)"><path class="c" d="M1239.021,776.718a1.506,1.506,0,0,1-1.442-1.938l2.662-8.854a1.5,1.5,0,0,1,2.882.866l-2.662,8.854A1.506,1.506,0,0,1,1239.021,776.718Z" transform="translate(-1237.516 -764.854)"/></g><g transform="translate(1.405 8.851)"><g transform="translate(24.061)"><path class="c" d="M1348.892,628.421a1.5,1.5,0,0,1-.714-2.83l8.143-4.378a1.5,1.5,0,1,1,1.425,2.65l-8.143,4.378A1.5,1.5,0,0,1,1348.892,628.421Z" transform="translate(-1347.386 -621.034)"/></g><g transform="translate(0 12.936)"><path class="c" d="M1148.98,735.9a1.5,1.5,0,0,1-.713-2.83l8.143-4.378a1.5,1.5,0,1,1,1.425,2.651l-8.143,4.378A1.5,1.5,0,0,1,1148.98,735.9Z" transform="translate(-1147.474 -728.51)"/></g></g><g transform="translate(0 12.243)"><g transform="translate(26.161 7.867)"><path class="c" d="M1363.511,720.249a1.5,1.5,0,0,1-.434-.064l-8.854-2.662a1.5,1.5,0,1,1,.866-2.882l8.854,2.663a1.5,1.5,0,0,1-.433,2.945Z" transform="translate(-1353.151 -714.577)"/></g><path class="c" d="M1146.157,654.889a1.508,1.508,0,0,1-.434-.064l-8.854-2.663a1.5,1.5,0,1,1,.866-2.881l8.854,2.662a1.5,1.5,0,0,1-.432,2.946Z" transform="translate(-1135.797 -649.217)"/></g><g transform="translate(8.851 1.405)"><g transform="translate(12.936 24.061)"><path class="c" d="M1322.695,770.237a1.5,1.5,0,0,1-1.326-.792l-4.378-8.143a1.5,1.5,0,0,1,2.651-1.425l4.378,8.143a1.5,1.5,0,0,1-1.324,2.217Z" transform="translate(-1316.811 -759.084)"/></g><path class="c" d="M1215.219,570.325a1.5,1.5,0,0,1-1.326-.792l-4.378-8.143a1.5,1.5,0,1,1,2.65-1.425l4.378,8.143a1.5,1.5,0,0,1-1.324,2.217Z" transform="translate(-1209.335 -559.172)"/></g></g><g transform="translate(598.845 821.069)"><path class="c" d="M1070.534,2820.45s-.722,8.455-9.506,8.211c0,0,7.6,2.541,5.895,11.325,0,0,4.391-9.394,9.759-8.906C1076.682,2831.08,1069.8,2827.526,1070.534,2820.45Z" transform="translate(-1061.028 -2820.45)"/></g><g transform="translate(812.747 842.341)"><circle class="c" cx="3.439" cy="3.439" r="3.439" transform="translate(0)"/></g><g transform="translate(788.179 813.243)"><path class="c" d="M2643.2,2755.432s-.691,8.094-9.1,7.86c0,0,7.278,2.433,5.643,10.842,0,0,4.2-8.993,9.342-8.526C2649.087,2765.608,2642.5,2762.206,2643.2,2755.432Z" transform="translate(-2634.102 -2755.432)"/></g><g transform="translate(810.941 631.174)"><circle class="c" cx="3.439" cy="3.439" r="3.439" transform="translate(0 0)"/></g><g transform="translate(657.156 610.05)"><path class="o" d="M1545.5,1079.075l4.492,2.6s3-7.889,11.456-9.288l-1.279-5.184S1549.516,1068.6,1545.5,1079.075Z" transform="translate(-1545.502 -1067.208)"/></g><g transform="translate(547.533 742.216)"><path class="p" d="M634.7,2167.193l4.837-1.885s1.759,8.256,9.9,10.932l-2.057,4.927S637.064,2178.16,634.7,2167.193Z" transform="translate(-634.701 -2165.308)"/></g><g transform="translate(843.539 789.985)"><path class="q" d="M3108.768,2573.75l.831-4.65s-7.678-.115-11.5-6.908l-4.034,2.7S3098.564,2573.573,3108.768,2573.75Z" transform="translate(-3094.063 -2562.192)"/></g><g transform="translate(593.674 628.131)"><circle class="c" cx="3.439" cy="3.439" r="3.439" transform="translate(0 0)"/></g><g transform="translate(825.994 656.802)"><path class="b" d="M2961.193,1457.1l-4.492-1.458s-1.164,7.591-8.415,10.449l2.127,4.366S2959.624,1467.186,2961.193,1457.1Z" transform="translate(-2948.286 -1455.643)"/></g><g transform="translate(570.473 785.87)"><path class="b" d="M836.292,2528l2.308,4.121s-7.217,2.625-8.6,10.3l-4.7-1.233S826.709,2531.512,836.292,2528Z" transform="translate(-825.3 -2528.002)"/></g><g transform="translate(726.869 596.776)"><path class="p" d="M2133.8,956.918l-4.72.154s1.483,7.535-4.367,12.686l3.483,3.384S2135.745,966.936,2133.8,956.918Z" transform="translate(-2124.709 -956.918)"/></g><g transform="translate(750.58 744.923)"><path class="q" d="M2336.419,2199.352l.83-4.649s-7.679-.116-11.5-6.909l-4.034,2.7S2326.215,2199.176,2336.419,2199.352Z" transform="translate(-2321.714 -2187.794)"/></g><g transform="translate(690.641 559.301)"><path class="q" d="M1838.421,657.117l.83-4.649s-7.678-.115-11.5-6.909l-4.034,2.7S1828.217,656.94,1838.421,657.117Z" transform="translate(-1823.716 -645.559)"/></g></g></svg>