<svg xmlns="http://www.w3.org/2000/svg" width="70" height="70" viewBox="0 0 70 70"><defs><style>.a{fill:#ff641a;}.b{fill:#f03800;}.c{fill:#edf5ff;}.d{fill:#dfe7f4;}.e{fill:#fb3;}.f{fill:#f93;}.g{fill:#fff7cc;}.h{fill:#fd9;}.i{fill:#474f54;}.j{fill:#32393f;}</style></defs><path class="a" d="M60.9,22.5,30,45.569V89.423H91.8V45.56Z" transform="translate(-25.898 -19.424)"/><path class="b" d="M286.9,45.56,256,22.5V89.423h30.9Z" transform="translate(-221 -19.424)"/><path class="c" d="M196.16,413.6a22.418,22.418,0,0,1-8.73-2.027l1.706-3.729a18.329,18.329,0,0,0,7.14,1.654Z" transform="translate(-161.805 -352.083)"/><path class="d" d="M306.46,389.6l-1.49-3.821a18.4,18.4,0,0,0,6.166-3.969l2.86,2.94A22.508,22.508,0,0,1,306.46,389.6Z" transform="translate(-263.275 -329.612)"/><path class="c" d="M105.2,339.4a22.42,22.42,0,0,1-4.632-7.672l3.861-1.378a18.416,18.416,0,0,0,3.791,6.279Z" transform="translate(-86.816 -285.187)"/><path class="d" d="M384.171,293.782l-3.777-1.6a18.357,18.357,0,0,0,1.45-7.184h4.1a22.419,22.419,0,0,1-1.775,8.782Z" transform="translate(-328.387 -246.035)"/><path class="c" d="M95.372,221.056l-4.093-.228a22.317,22.317,0,0,1,2.277-8.674l3.677,1.814A18.3,18.3,0,0,0,95.372,221.056Z" transform="translate(-78.8 -183.149)"/><path class="d" d="M363.954,189.622a18.307,18.307,0,0,0-3.423-6.481l3.172-2.6a22.446,22.446,0,0,1,4.188,7.927Z" transform="translate(-311.24 -155.859)"/><path class="c" d="M150.641,135.539l-2.688-3.1a22.435,22.435,0,0,1,7.8-4.412l1.266,3.9A18.32,18.32,0,0,0,150.641,135.539Z" transform="translate(-127.725 -110.523)"/><path class="d" d="M274.606,126.748a18.321,18.321,0,0,0-7.033-2.063l.348-4.086a22.385,22.385,0,0,1,8.6,2.519Z" transform="translate(-230.991 -104.112)"/><g transform="translate(24.746 28.711)"><path class="e" d="M193.3,210l-2.051,4.1L189.2,210H181v20.508h20.508V210Z" transform="translate(-181 -210)"/><path class="f" d="M266.254,210h-8.2L256,214.1v16.406h10.254Z" transform="translate(-245.746 -210)"/><path class="g" d="M243.051,210H241v8.2h4.1V210Z" transform="translate(-232.797 -210)"/><path class="h" d="M256,210h2.051v8.2H256Z" transform="translate(-245.746 -210)"/></g><path class="i" d="M35,0,0,26.147l2.459,3.28L35,5.127,67.54,29.418,70,26.137Z"/><path class="j" d="M291,26.137,256,0V5.127L288.54,29.418Z" transform="translate(-221)"/></svg>