<svg xmlns="http://www.w3.org/2000/svg" width="72.8" height="72.392" viewBox="0 0 72.8 72.392"><defs><style>.a{fill:#eac092;}.b{fill:#fedbab;}.c{fill:#eaecf0;}.d{fill:#3584d5;}.e{fill:#93c144;}.f{fill:#ffd36c;}</style></defs><g transform="translate(0 -0.425)"><path class="a" d="M107.34,372.017v11.274c6.421.283,4.568,1.418,15.741,6.441a10.573,10.573,0,0,0,8.226-.14l.007,0,21.949-7.859c.714-.329,4.317-2.286,2.9-5.932-1.661-3.888-5.936-2.266-6.295-2.149L138.4,376.818" transform="translate(-92.078 -319.101)"/><g transform="translate(15.263 45.509)"><path class="b" d="M120.305,332.045l12.761,4.044a4.192,4.192,0,0,0,5.179-2.886h0c.633-2.227-.659-4.546-3.211-5.493l-11.321-3.842a9.623,9.623,0,0,0-8.172-3.947c-3.634,0-6.766,2.937-8.2,5.508v5.134" transform="translate(-107.341 -319.921)"/></g><path d="M154.172,386.7a1.4,1.4,0,0,1-.277-.028,1.377,1.377,0,0,1-.267-.081,1.436,1.436,0,0,1-.245-.131,1.382,1.382,0,0,1-.392-.392,1.314,1.314,0,0,1-.131-.246,1.334,1.334,0,0,1-.081-.266,1.366,1.366,0,0,1,0-.555,1.376,1.376,0,0,1,.081-.267,1.4,1.4,0,0,1,.523-.637,1.439,1.439,0,0,1,.245-.131,1.378,1.378,0,0,1,.267-.081,1.4,1.4,0,0,1,.555,0,1.335,1.335,0,0,1,.266.081,1.4,1.4,0,0,1,.246.131,1.382,1.382,0,0,1,.392.392,1.443,1.443,0,0,1,.131.245,1.484,1.484,0,0,1,.081.267,1.366,1.366,0,0,1,0,.555,1.435,1.435,0,0,1-.081.266,1.4,1.4,0,0,1-.131.246,1.382,1.382,0,0,1-.392.392,1.405,1.405,0,0,1-.246.131,1.334,1.334,0,0,1-.266.081A1.4,1.4,0,0,1,154.172,386.7Z" transform="translate(-131.031 -329.257)"/><rect class="c" width="5.386" height="15.277" transform="translate(9.876 50.835)"/><rect class="d" width="8.454" height="17.927" transform="translate(1.422 50.835)"/><path d="M65.405,322.016l-.017-.042c-1.309-3.062-4.378-4.194-8.01-2.954l-9.906,2.739a6.494,6.494,0,0,0-4.021-3.96l-.038-.013-10.889-3.7a11.231,11.231,0,0,0-9.061-4.169c-3.715,0-7,2.548-8.881,5.326H1.422A1.422,1.422,0,0,0,0,316.67V334.6a1.422,1.422,0,0,0,1.422,1.422H9.876A1.422,1.422,0,0,0,11.3,334.6v-1.228h3.965a1.422,1.422,0,0,0,1.422-1.422v-.409c2.311.2,3.071.64,5.194,1.864a86.051,86.051,0,0,0,8.542,4.361l.062.026a12.763,12.763,0,0,0,4.575.862,11.334,11.334,0,0,0,4.711-1.009l21.9-7.84c.039-.014.077-.03.115-.047C63.871,328.794,66.99,326.08,65.405,322.016ZM8.454,333.174H2.844V318.092h5.61Zm5.386-2.65H11.3V318.092h2.543Zm46.8-3.377-21.886,7.836-.064.025-.057.025a9.216,9.216,0,0,1-7.081.121,82.364,82.364,0,0,1-8.256-4.217,12.8,12.8,0,0,0-6.614-2.25V317.236c1.348-2.209,3.961-4.47,6.779-4.47a8.2,8.2,0,0,1,6.961,3.27,1.422,1.422,0,0,0,.754.6l11.3,3.835c1.8.677,2.759,2.223,2.32,3.764a2.77,2.77,0,0,1-3.4,1.912l-12.739-4.037a1.422,1.422,0,0,0-.859,2.711l12.761,4.044.041.012a5.581,5.581,0,0,0,4.268-.5,5.577,5.577,0,0,0,2.667-3.369q.049-.173.087-.346L58.3,321.712c1.542-.527,3.566-.716,4.467,1.359C63.7,325.507,61.273,326.848,60.642,327.148Z" transform="translate(0 -265.835)"/><path class="e" d="M68.191,22.652,55.562,10.023,39.729,25.857,66.785,52.913,81.727,37.972" transform="translate(-34.08 -8.578)"/><path class="f" d="M149.77,113.961h0l0-.009a6.683,6.683,0,1,0,7.139,6.835" transform="translate(-123.136 -97.73)"/><path class="a" d="M220.078,43.808V32.534c-6.421-.283-4.568-1.418-15.741-6.441a10.574,10.574,0,0,0-8.226.14l-.007,0-6.622,2.371,6.833,6.833" transform="translate(-162.541 -21.702)"/><g transform="translate(5.649 1.445)"><path class="e" d="M39.729,89,45.1,83.628a7.6,7.6,0,0,1,0,10.736Z" transform="translate(-39.729 -73.162)"/><path class="e" d="M192.264,260.521a7.6,7.6,0,0,1,10.736,0l-5.368,5.368Z" transform="translate(-170.575 -222.999)"/><path class="e" d="M113.333,15.391l5.368-5.368,5.368,5.368A7.6,7.6,0,0,1,113.333,15.391Z" transform="translate(-102.867 -10.023)"/><path class="e" d="M288.462,182.048a7.6,7.6,0,0,0,1.765,7.964l4.476-4.476" transform="translate(-252.705 -157.588)"/></g><g transform="translate(26.474 13.184)"><path class="b" d="M204.29,96.79l-12.761-4.044a4.192,4.192,0,0,0-5.179,2.886h0c-.633,2.227.659,4.546,3.211,5.493l11.325,3.844,0,0a9.623,9.623,0,0,0,8.172,3.947c3.634,0,6.766-2.937,8.2-5.508V98.272" transform="translate(-186.19 -92.585)"/></g><path d="M340.672,126.341a1.4,1.4,0,0,1-.277-.028,1.436,1.436,0,0,1-.266-.081,1.4,1.4,0,0,1-.246-.131,1.381,1.381,0,0,1-.392-.392,1.4,1.4,0,0,1-.131-.246,1.335,1.335,0,0,1-.081-.266,1.366,1.366,0,0,1,0-.555,1.377,1.377,0,0,1,.081-.267,1.443,1.443,0,0,1,.131-.245,1.382,1.382,0,0,1,.392-.392,1.4,1.4,0,0,1,.246-.131,1.335,1.335,0,0,1,.266-.081,1.416,1.416,0,0,1,.822.081,1.442,1.442,0,0,1,.245.131,1.422,1.422,0,0,1,.523.637,1.418,1.418,0,0,1,.082.822,1.343,1.343,0,0,1-.082.266,1.317,1.317,0,0,1-.131.246,1.381,1.381,0,0,1-.392.392,1.442,1.442,0,0,1-.245.131,1.505,1.505,0,0,1-.266.081A1.426,1.426,0,0,1,340.672,126.341Z" transform="translate(-291.013 -105.918)"/><rect class="c" width="5.386" height="15.277" transform="translate(57.538 8.911)"/><rect class="d" width="8.454" height="17.927" transform="translate(62.924 6.261)"/><path d="M96.847,4.839H88.393a1.422,1.422,0,0,0-1.422,1.422V7.488H83.007A1.422,1.422,0,0,0,81.585,8.91v.409c-2.311-.2-3.071-.64-5.194-1.864a86.037,86.037,0,0,0-8.542-4.361l-.063-.026a12.1,12.1,0,0,0-9.285.146L52.78,5.262,47.957.44a1.422,1.422,0,0,0-2.011,0L30.112,16.273a1.41,1.41,0,0,0,0,2.011L57.169,45.341a1.536,1.536,0,0,0,2.011,0L73.635,30.885c.376.032.766.05,1.17.05,3.715,0,7-2.548,8.881-5.326H96.847a1.422,1.422,0,0,0,1.422-1.422V6.261A1.422,1.422,0,0,0,96.847,4.839ZM50.558,18.026a6.3,6.3,0,0,0,4.261,5.031l.038.013,2.843.965a5.262,5.262,0,1,1-7.141-6.01ZM53.4,12.474a5.573,5.573,0,0,0-2.317,2.447A8.1,8.1,0,1,0,60.4,24.953l4.8,1.629a9.078,9.078,0,0,0,1.506,7.206l-3.247,3.247a9.036,9.036,0,0,0-10.577,0L38.418,22.568a9.036,9.036,0,0,0,0-10.578l3.244-3.244a9.036,9.036,0,0,0,10.578,0l3.075,3.075A5.611,5.611,0,0,0,53.4,12.474ZM68.759,31.74a6.219,6.219,0,0,1-.908-2.957,11.056,11.056,0,0,0,2.508,1.358ZM46.951,3.456,50.192,6.7a6.2,6.2,0,0,1-6.481,0ZM36.37,14.038a6.2,6.2,0,0,1,0,6.482l-3.241-3.241Zm21.8,28.286-3.24-3.24a6.191,6.191,0,0,1,6.48,0ZM74.805,28.091a10.349,10.349,0,0,1-1.483-.1h-.006A8.144,8.144,0,0,1,68.05,25.1c-.029-.043-.153-.2-.171-.231a1.417,1.417,0,0,0-.784-.652L55.79,20.384c-1.8-.677-2.758-2.222-2.321-3.763v-.007a2.77,2.77,0,0,1,3.4-1.907l12.739,4.037a1.422,1.422,0,0,0,.859-2.711L60.34,12.823l-.088-.088,0,0L55,7.486l4.508-1.614.049-.019.015-.006.057-.025A9.215,9.215,0,0,1,66.715,5.7,82.363,82.363,0,0,1,74.97,9.919a12.8,12.8,0,0,0,6.614,2.25V23.621C80.237,25.83,77.623,28.091,74.805,28.091Zm9.623-17.759h2.543V22.765H84.429Zm11,12.433h-5.61V7.683h5.61Z" transform="translate(-25.469 0.402)"/></g></svg>