<svg xmlns="http://www.w3.org/2000/svg" width="70" height="71.167" viewBox="0 0 70 71.167"><defs><style>.a{fill:#fedbab;}.b{fill:#e7b900;}.c{fill:#ffd422;}.d{fill:#3584d5;}.e{fill:#fff;}</style></defs><g transform="translate(-4.001 0)"><path class="a" d="M17.834,23.169,45.834,8l28,15.167h5.833v4.667H77.334V32.5h-63V27.835H12V23.169Z" transform="translate(-6.833 -6.835)"/><path class="b" d="M144.556,50.5h3.111L127.834,40,108,50.5h10.111l13.222-7Z" transform="translate(-88.833 -34.168)"/><path class="c" d="M190.556,64l-13.222,7h26.444Z" transform="translate(-148.055 -54.668)"/><g transform="translate(7.374 20.956)"><rect class="a" width="64" height="3" transform="translate(-0.374 -0.373)"/><rect class="a" width="64" height="4" transform="translate(-0.374 40.627)"/></g><rect class="a" width="68" height="4" transform="translate(5.001 65.583)"/><rect class="d" width="4" height="26" transform="translate(62.001 30.583)"/><rect class="d" width="2" height="26" transform="translate(66.001 30.583)"/><path class="d" d="M316,208v25.667h4.7V208Z" transform="translate(-266.5 -177.668)"/><g transform="translate(10.119 30.444)"><rect class="d" width="6" height="26" transform="translate(-0.118 0.139)"/></g><path class="d" d="M152.7,208v25.667H148V208Z" transform="translate(-124.2 -177.668)"/><ellipse class="c" cx="9" cy="9.5" rx="9" ry="9.5" transform="translate(30.001 33.583)"/><g transform="translate(32.333 34.484)"><path class="e" d="M199.946,240.9l-1.668-1.632a9.261,9.261,0,0,1,6.668-2.808V238.8A6.945,6.945,0,0,0,199.946,240.9Z" transform="translate(-198.278 -236.462)"/><path class="e" d="M263.666,323.984l-.911-2.148a6.946,6.946,0,0,0,3.779-3.893l2.173.851A9.26,9.26,0,0,1,263.666,323.984Z" transform="translate(-253.352 -306.06)"/></g><g transform="translate(27.334 31.501)"><path class="b" d="M175.668,216a11.667,11.667,0,1,0,11.667,11.667A11.68,11.68,0,0,0,175.668,216Zm0,21A9.333,9.333,0,1,1,185,227.669,9.344,9.344,0,0,1,175.668,237Z" transform="translate(-164.001 -216.002)"/><path class="b" d="M227,257.335a3.5,3.5,0,0,0-3.5-3.5,1.167,1.167,0,0,1,0-2.333h2.333v-2.333h-1.167V248h-2.333v1.382a3.491,3.491,0,0,0,1.167,6.785,1.167,1.167,0,1,1,0,2.333h-2.333v2.333h1.167V262h2.333V260.62A3.494,3.494,0,0,0,227,257.335Z" transform="translate(-211.834 -243.335)"/></g><path d="M72.834,15.167H67.3L39.557.141a1.165,1.165,0,0,0-1.111,0L10.705,15.167H5.168A1.167,1.167,0,0,0,4,16.334V21a1.167,1.167,0,0,0,1.167,1.167H6.334v3.5A1.167,1.167,0,0,0,7.5,26.834h63a1.167,1.167,0,0,0,1.167-1.167v-3.5h1.167A1.167,1.167,0,0,0,74,21V16.334A1.167,1.167,0,0,0,72.834,15.167ZM39,2.494,62.4,15.167H59.124L39.547,4.8a1.164,1.164,0,0,0-1.091,0L18.878,15.167H15.6ZM54.137,15.167H23.865L39,7.154ZM8.668,24.5V22.167H69.334V24.5Zm63-4.667H6.334V17.5H71.668Z" transform="translate(0 0)"/><path d="M175.668,216a11.667,11.667,0,1,0,11.667,11.667A11.68,11.68,0,0,0,175.668,216Zm0,21A9.333,9.333,0,1,1,185,227.669,9.344,9.344,0,0,1,175.668,237Z" transform="translate(-136.667 -184.501)"/><path d="M223.5,253.835a1.167,1.167,0,0,1,0-2.333h2.333v-2.333h-1.167V248h-2.333v1.382a3.491,3.491,0,0,0,1.167,6.785,1.167,1.167,0,1,1,0,2.333h-2.333v2.333h1.167V262h2.333V260.62a3.491,3.491,0,0,0-1.167-6.785Z" transform="translate(-184.5 -211.835)"/><path d="M72.834,412.669H71.668v-3.5A1.167,1.167,0,0,0,70.5,408H7.5a1.167,1.167,0,0,0-1.167,1.167v3.5H5.168A1.167,1.167,0,0,0,4,413.835V418.5a1.167,1.167,0,0,0,1.167,1.167H72.834A1.167,1.167,0,0,0,74,418.5v-4.667A1.167,1.167,0,0,0,72.834,412.669ZM8.668,410.335H69.334v2.333H8.668v-2.333Zm63,7H6.334V415H71.668Z" transform="translate(0 -348.501)"/><path d="M43,228a1.167,1.167,0,0,0,1.167-1.167V201.169A1.167,1.167,0,0,0,43,200H37.168A1.167,1.167,0,0,0,36,201.169v25.667A1.167,1.167,0,0,0,37.168,228Zm-4.667-25.667h3.5v23.333h-3.5Z" transform="translate(-27.333 -170.835)"/><path d="M131,200h-5.833A1.167,1.167,0,0,0,124,201.169v25.667A1.167,1.167,0,0,0,125.168,228H131a1.167,1.167,0,0,0,1.167-1.167v-3.5h-2.333v2.333h-3.5V202.335h3.5v2.333h2.333v-3.5A1.167,1.167,0,0,0,131,200Z" transform="translate(-102.5 -170.835)"/><path d="M308,223.335v3.5A1.167,1.167,0,0,0,309.168,228H315a1.167,1.167,0,0,0,1.167-1.167V201.169A1.167,1.167,0,0,0,315,200h-5.833A1.167,1.167,0,0,0,308,201.169v3.5h2.333v-2.333h3.5v23.333h-3.5v-2.333Z" transform="translate(-259.667 -170.835)"/><path d="M403,228a1.167,1.167,0,0,0,1.167-1.167V201.169A1.167,1.167,0,0,0,403,200h-5.833A1.167,1.167,0,0,0,396,201.169v25.667A1.167,1.167,0,0,0,397.168,228Zm-4.667-25.667h3.5v23.333h-3.5Z" transform="translate(-334.833 -170.835)"/></g></svg>