<svg xmlns="http://www.w3.org/2000/svg" width="63.525" height="74.96" viewBox="0 0 63.525 74.96"><defs><style>.a{fill:#0071bc;}.b{fill:#fed856;}.c{fill:#29abe2;}.d{fill:#cd9829;}.e{fill:#fbb03b;}</style></defs><g transform="translate(-39.051)"><path class="a" d="M92.412,172.5H42.863a3.812,3.812,0,1,1,0-7.623h49.55V172.5Z" transform="translate(0 -140.741)"/><circle class="b" cx="13.976" cy="13.976" r="13.976" transform="translate(55.567 11.434)"/><path class="c" d="M39.051,202.35v31.763a3.811,3.811,0,0,0,3.812,3.812h55.9v-43.2h-55.9a3.811,3.811,0,0,1-3.812-3.812Z" transform="translate(0 -162.964)"/><g transform="translate(63.191 2.541)"><path class="d" d="M238.644,17.356h2.541v7.623h-2.541Z" transform="translate(-233.562 -17.356)"/><path class="d" d="M273.356,52.068H275.9v4.764h-2.541Z" transform="translate(-263.192 -46.986)"/><path class="d" d="M203.932,34.712h2.541v7.305h-2.541Z" transform="translate(-203.932 -32.171)"/></g><path class="a" d="M294.954,312.407h5.082a2.54,2.54,0,0,1,2.541,2.541v10.164a2.54,2.54,0,0,1-2.541,2.541H280.979a7.623,7.623,0,1,1,0-15.246Z" transform="translate(-200.001 -266.669)"/><path class="e" d="M65.085,216.949h2.541v43.2H65.085Z" transform="translate(-22.222 -185.186)"/><g transform="translate(63.191)"><path class="d" d="M273.356,17.356H275.9V19.9h-2.541Z" transform="translate(-263.192 -14.815)"/><path class="d" d="M203.932,0h2.541V2.541h-2.541Z" transform="translate(-203.932)"/></g><circle class="e" cx="2.541" cy="2.541" r="2.541" transform="translate(78.437 50.82)"/><g transform="translate(60.65 17.787)"><path class="d" d="M226.37,122.947v-1.455h-2.541v1.455a3.614,3.614,0,0,0-.536,6.686l2.476,1.239a1.085,1.085,0,0,1-.484,2.056h-.371a1.088,1.088,0,0,1-1.085-1.085v-.185h-2.541v.185a3.63,3.63,0,0,0,3.626,3.626h.371a3.626,3.626,0,0,0,1.621-6.87l-2.476-1.239a1.085,1.085,0,0,1,.484-2.056h.371a1.088,1.088,0,0,1,1.085,1.085v.185h2.541v-.185A3.619,3.619,0,0,0,226.37,122.947Z" transform="translate(-216.206 -121.492)"/><path class="d" d="M290.712,164.881h2.541v2.541h-2.541Z" transform="translate(-275.466 -158.529)"/><path class="d" d="M186.576,164.881h2.541v2.541h-2.541Z" transform="translate(-186.576 -158.529)"/></g></g></svg>